<?xml version="1.0" encoding="UTF-8" standalone="no"?>
<svg
   width="793.701"
   height="529.134"
   viewBox="0 0 210 140"
   id="svg5"
   overflow="hidden"
   version="1.1"
   sodipodi:docname="JJ-phase.svg"
   inkscape:version="1.3.2 (091e20ef0f, 2023-11-25)"
   xmlns:inkscape="http://www.inkscape.org/namespaces/inkscape"
   xmlns:sodipodi="http://sodipodi.sourceforge.net/DTD/sodipodi-0.dtd"
   xmlns:xlink="http://www.w3.org/1999/xlink"
   xmlns="http://www.w3.org/2000/svg"
   xmlns:svg="http://www.w3.org/2000/svg">
  <sodipodi:namedview
     id="namedview1"
     pagecolor="#ffffff"
     bordercolor="#000000"
     borderopacity="0.25"
     inkscape:showpageshadow="2"
     inkscape:pageopacity="0.0"
     inkscape:pagecheckerboard="0"
     inkscape:deskcolor="#d1d1d1"
     inkscape:zoom="1.5824599"
     inkscape:cx="396.85049"
     inkscape:cy="214.22344"
     inkscape:window-width="1914"
     inkscape:window-height="998"
     inkscape:window-x="1922"
     inkscape:window-y="4"
     inkscape:window-maximized="0"
     inkscape:current-layer="layer1" />
  <defs
     id="defs2">
    <marker
       markerUnits="strokeWidth"
       orient="auto"
       id="Arrow1Lend"
       overflow="visible">
      <path
         d="M0 0 5-5-12.5 0 5 5Z"
         id="path3915"
         stroke-width="1.33333"
         fill-rule="evenodd"
         transform="matrix(-0.8 0 0 -0.8 -10 0)" />
    </marker>
    <marker
       markerUnits="strokeWidth"
       orient="auto"
       id="Arrow1Lstart"
       overflow="visible">
      <path
         d="M0 0 5-5-12.5 0 5 5Z"
         id="path3912"
         stroke-width="1.33333"
         fill-rule="evenodd"
         transform="matrix(0.8 0 0 0.8 10 0)" />
    </marker>
    <g
       id="g4638">
      <symbol
         id="symbol981"
         overflow="visible">
        <path
           d=""
           id="path9325" />
      </symbol>
      <symbol
         id="symbol1842"
         overflow="visible">
        <path
           d="M2.64063-3.71875 3.76563-3.71875C3.4375-2.25 3.34375-1.8125 3.34375-1.14063 3.34375-1 3.34375-0.734375 3.42188-0.390625 3.53125 0.046875 3.64063 0.109375 3.78125 0.109375 3.98438 0.109375 4.20313-0.0625 4.20313-0.265625 4.20313-0.328125 4.20313-0.34375 4.14063-0.484375 3.84375-1.20313 3.84375-1.85938 3.84375-2.14063 3.84375-2.65625 3.92188-3.20313 4.03125-3.71875L5.15625-3.71875C5.29688-3.71875 5.65625-3.71875 5.65625-4.0625 5.65625-4.29688 5.4375-4.29688 5.25-4.29688L1.90625-4.29688C1.6875-4.29688 1.3125-4.29688 0.875-3.82813 0.53125-3.4375 0.265625-2.98438 0.265625-2.9375 0.265625-2.92188 0.265625-2.82813 0.390625-2.82813 0.46875-2.82813 0.484375-2.875 0.546875-2.95313 1.03125-3.71875 1.60938-3.71875 1.8125-3.71875L2.375-3.71875C2.0625-2.51563 1.53125-1.3125 1.10938-0.40625 1.03125-0.25 1.03125-0.234375 1.03125-0.15625 1.03125 0.03125 1.1875 0.109375 1.3125 0.109375 1.60938 0.109375 1.6875-0.171875 1.8125-0.53125 1.95313-1 1.95313-1.01563 2.07813-1.51563Z"
           id="path3036" />
      </symbol>
      <symbol
         id="symbol5421"
         overflow="visible">
        <path
           d="M2.85938-6.8125C2.85938-6.8125 2.85938-6.92188 2.73438-6.92188 2.5-6.92188 1.78125-6.84375 1.51563-6.8125 1.4375-6.8125 1.32813-6.79688 1.32813-6.625 1.32813-6.5 1.42188-6.5 1.5625-6.5 2.04688-6.5 2.0625-6.4375 2.0625-6.32813L2.03125-6.125 0.59375-0.390625C0.546875-0.25 0.546875-0.234375 0.546875-0.171875 0.546875 0.0625 0.75 0.109375 0.84375 0.109375 0.96875 0.109375 1.10938 0.015625 1.17188-0.09375 1.21875-0.1875 1.67188-2.03125 1.73438-2.28125 2.07813-2.25 2.89063-2.09375 2.89063-1.4375 2.89063-1.35938 2.89063-1.32813 2.85938-1.21875 2.84375-1.10938 2.82813-0.984375 2.82813-0.875 2.82813-0.296875 3.21875 0.109375 3.73438 0.109375 4.03125 0.109375 4.3125-0.046875 4.53125-0.421875 4.78125-0.859375 4.89063-1.40625 4.89063-1.42188 4.89063-1.53125 4.79688-1.53125 4.76563-1.53125 4.67188-1.53125 4.65625-1.48438 4.625-1.34375 4.42188-0.625 4.20313-0.109375 3.76563-0.109375 3.5625-0.109375 3.4375-0.21875 3.4375-0.578125 3.4375-0.75 3.48438-0.984375 3.51563-1.14063 3.5625-1.3125 3.5625-1.34375 3.5625-1.45313 3.5625-2.09375 2.9375-2.375 2.07813-2.5 2.39063-2.67188 2.71875-2.98438 2.9375-3.23438 3.42188-3.76563 3.875-4.1875 4.35938-4.1875 4.42188-4.1875 4.4375-4.1875 4.45313-4.17188 4.57813-4.15625 4.57813-4.15625 4.67188-4.09375 4.6875-4.09375 4.6875-4.07813 4.70313-4.0625 4.23438-4.03125 4.14063-3.64063 4.14063-3.51563 4.14063-3.35938 4.25-3.17188 4.51563-3.17188 4.78125-3.17188 5.0625-3.39063 5.0625-3.78125 5.0625-4.07813 4.82813-4.40625 4.39063-4.40625 4.10938-4.40625 3.65625-4.32813 2.9375-3.53125 2.59375-3.15625 2.20313-2.75 1.82813-2.60938Z"
           id="path1397" />
      </symbol>
      <symbol
         id="symbol9740"
         overflow="visible">
        <path
           d=""
           id="path2145" />
      </symbol>
      <symbol
         id="symbol8080"
         overflow="visible">
        <path
           d="M3.51563-1.26563 3.28125-1.26563C3.26563-1.10938 3.1875-0.703125 3.09375-0.640625 3.04688-0.59375 2.51563-0.59375 2.40625-0.59375L1.125-0.59375C1.85938-1.23438 2.10938-1.4375 2.51563-1.76563 3.03125-2.17188 3.51563-2.60938 3.51563-3.26563 3.51563-4.10938 2.78125-4.625 1.89063-4.625 1.03125-4.625 0.4375-4.01563 0.4375-3.375 0.4375-3.03125 0.734375-2.98438 0.8125-2.98438 0.96875-2.98438 1.17188-3.10938 1.17188-3.35938 1.17188-3.48438 1.125-3.73438 0.765625-3.73438 0.984375-4.21875 1.45313-4.375 1.78125-4.375 2.48438-4.375 2.84375-3.82813 2.84375-3.26563 2.84375-2.65625 2.40625-2.1875 2.1875-1.9375L0.515625-0.265625C0.4375-0.203125 0.4375-0.1875 0.4375 0L3.3125 0Z"
           id="path1203" />
      </symbol>
      <symbol
         id="symbol694"
         overflow="visible">
        <path
           d="M5.35938-2.34375C5.45313-2.34375 5.60938-2.34375 5.60938-2.51563 5.60938-2.6875 5.45313-2.6875 5.35938-2.6875L0.75-2.6875C0.65625-2.6875 0.484375-2.6875 0.484375-2.51563 0.484375-2.34375 0.640625-2.34375 0.75-2.34375ZM5.35938-0.8125C5.45313-0.8125 5.60938-0.8125 5.60938-0.96875 5.60938-1.15625 5.45313-1.15625 5.35938-1.15625L0.75-1.15625C0.640625-1.15625 0.484375-1.15625 0.484375-0.96875 0.484375-0.8125 0.65625-0.8125 0.75-0.8125Z"
           id="path7868" />
      </symbol>
      <symbol
         id="symbol7459"
         overflow="visible">
        <path
           d="M2.32813-4.4375C2.32813-4.625 2.32813-4.625 2.125-4.625 1.67188-4.1875 1.04688-4.1875 0.765625-4.1875L0.765625-3.9375C0.921875-3.9375 1.39063-3.9375 1.76563-4.125L1.76563-0.578125C1.76563-0.34375 1.76563-0.25 1.07813-0.25L0.8125-0.25 0.8125 0C0.9375 0 1.79688-0.03125 2.04688-0.03125 2.26563-0.03125 3.14063 0 3.29688 0L3.29688-0.25 3.03125-0.25C2.32813-0.25 2.32813-0.34375 2.32813-0.578125Z"
           id="path935" />
      </symbol>
      <symbol
         id="symbol727"
         overflow="visible">
        <path
           d=""
           id="path6740" />
      </symbol>
      <symbol
         id="symbol9487"
         overflow="visible">
        <path
           d="M1.3125-3.26563 1.3125-3.51563C1.3125-6.03125 2.54688-6.39063 3.0625-6.39063 3.29688-6.39063 3.71875-6.32813 3.9375-5.98438 3.78125-5.98438 3.39063-5.98438 3.39063-5.54688 3.39063-5.23438 3.625-5.07813 3.84375-5.07813 4-5.07813 4.3125-5.17188 4.3125-5.5625 4.3125-6.15625 3.875-6.64063 3.04688-6.64063 1.76563-6.64063 0.421875-5.35938 0.421875-3.15625 0.421875-0.484375 1.57813 0.21875 2.5 0.21875 3.60938 0.21875 4.5625-0.71875 4.5625-2.03125 4.5625-3.29688 3.67188-4.25 2.5625-4.25 1.89063-4.25 1.51563-3.75 1.3125-3.26563ZM2.5-0.0625C1.875-0.0625 1.57813-0.65625 1.51563-0.8125 1.32813-1.28125 1.32813-2.07813 1.32813-2.25 1.32813-3.03125 1.65625-4.03125 2.54688-4.03125 2.71875-4.03125 3.17188-4.03125 3.48438-3.40625 3.65625-3.04688 3.65625-2.53125 3.65625-2.04688 3.65625-1.5625 3.65625-1.0625 3.48438-0.703125 3.1875-0.109375 2.73438-0.0625 2.5-0.0625Z"
           id="path256" />
      </symbol>
      <symbol
         id="symbol8172"
         overflow="visible">
        <path
           d="M6.84375-3.26563C7-3.26563 7.1875-3.26563 7.1875-3.45313 7.1875-3.65625 7-3.65625 6.85938-3.65625L0.890625-3.65625C0.75-3.65625 0.5625-3.65625 0.5625-3.45313 0.5625-3.26563 0.75-3.26563 0.890625-3.26563ZM6.85938-1.32813C7-1.32813 7.1875-1.32813 7.1875-1.53125 7.1875-1.71875 7-1.71875 6.84375-1.71875L0.890625-1.71875C0.75-1.71875 0.5625-1.71875 0.5625-1.53125 0.5625-1.32813 0.75-1.32813 0.890625-1.32813Z"
           id="path8087" />
      </symbol>
      <symbol
         id="symbol6206"
         overflow="visible">
        <path
           d="M1.76563-6.92188 0.328125-6.8125 0.328125-6.5C1.03125-6.5 1.10938-6.4375 1.10938-5.9375L1.10938-0.75C1.10938-0.3125 1-0.3125 0.328125-0.3125L0.328125 0C0.65625-0.015625 1.1875-0.03125 1.4375-0.03125 1.6875-0.03125 2.17188-0.015625 2.54688 0L2.54688-0.3125C1.875-0.3125 1.76563-0.3125 1.76563-0.75Z"
           id="path2902" />
      </symbol>
      <symbol
         id="symbol8646"
         overflow="visible">
        <path
           d="M1.76563-4.40625 0.375-4.29688 0.375-3.98438C1.01563-3.98438 1.10938-3.92188 1.10938-3.4375L1.10938-0.75C1.10938-0.3125 1-0.3125 0.328125-0.3125L0.328125 0C0.640625-0.015625 1.1875-0.03125 1.42188-0.03125 1.78125-0.03125 2.125-0.015625 2.46875 0L2.46875-0.3125C1.79688-0.3125 1.76563-0.359375 1.76563-0.75ZM1.79688-6.14063C1.79688-6.45313 1.5625-6.67188 1.28125-6.67188 0.96875-6.67188 0.75-6.40625 0.75-6.14063 0.75-5.875 0.96875-5.60938 1.28125-5.60938 1.5625-5.60938 1.79688-5.82813 1.79688-6.14063Z"
           id="path2928" />
      </symbol>
      <symbol
         id="symbol2957"
         overflow="visible">
        <path
           d="M1.09375-3.42188 1.09375-0.75C1.09375-0.3125 0.984375-0.3125 0.3125-0.3125L0.3125 0C0.671875-0.015625 1.17188-0.03125 1.45313-0.03125 1.70313-0.03125 2.21875-0.015625 2.5625 0L2.5625-0.3125C1.89063-0.3125 1.78125-0.3125 1.78125-0.75L1.78125-2.59375C1.78125-3.625 2.5-4.1875 3.125-4.1875 3.76563-4.1875 3.875-3.65625 3.875-3.07813L3.875-0.75C3.875-0.3125 3.76563-0.3125 3.09375-0.3125L3.09375 0C3.4375-0.015625 3.95313-0.03125 4.21875-0.03125 4.46875-0.03125 5-0.015625 5.32813 0L5.32813-0.3125C4.67188-0.3125 4.5625-0.3125 4.5625-0.75L4.5625-2.59375C4.5625-3.625 5.26563-4.1875 5.90625-4.1875 6.53125-4.1875 6.64063-3.65625 6.64063-3.07813L6.64063-0.75C6.64063-0.3125 6.53125-0.3125 5.85938-0.3125L5.85938 0C6.20313-0.015625 6.71875-0.03125 6.98438-0.03125 7.25-0.03125 7.76563-0.015625 8.10938 0L8.10938-0.3125C7.59375-0.3125 7.34375-0.3125 7.32813-0.609375L7.32813-2.51563C7.32813-3.375 7.32813-3.67188 7.01563-4.03125 6.875-4.20313 6.54688-4.40625 5.96875-4.40625 5.14063-4.40625 4.6875-3.8125 4.53125-3.42188 4.39063-4.29688 3.65625-4.40625 3.20313-4.40625 2.46875-4.40625 2-3.98438 1.71875-3.35938L1.71875-4.40625 0.3125-4.29688 0.3125-3.98438C1.01563-3.98438 1.09375-3.92188 1.09375-3.42188Z"
           id="path3440" />
      </symbol>
      <symbol
         id="symbol2692"
         overflow="visible">
        <path
           d="M2.9375-6.375C2.9375-6.625 2.9375-6.64063 2.70313-6.64063 2.07813-6 1.20313-6 0.890625-6L0.890625-5.6875C1.09375-5.6875 1.67188-5.6875 2.1875-5.95313L2.1875-0.78125C2.1875-0.421875 2.15625-0.3125 1.26563-0.3125L0.953125-0.3125 0.953125 0C1.29688-0.03125 2.15625-0.03125 2.5625-0.03125 2.95313-0.03125 3.82813-0.03125 4.17188 0L4.17188-0.3125 3.85938-0.3125C2.95313-0.3125 2.9375-0.421875 2.9375-0.78125Z"
           id="path8450" />
      </symbol>
      <symbol
         id="symbol4249"
         overflow="visible">
        <path
           d=""
           id="path5010" />
      </symbol>
      <symbol
         id="symbol4679"
         overflow="visible">
        <path
           d="M0.84375-0.4375C0.828125-0.34375 0.78125-0.171875 0.78125-0.15625 0.78125 0 0.90625 0.0625 1.01563 0.0625 1.14063 0.0625 1.25-0.015625 1.29688-0.078125 1.32813-0.140625 1.375-0.375 1.42188-0.515625 1.45313-0.640625 1.53125-0.96875 1.5625-1.14063 1.60938-1.29688 1.65625-1.45313 1.6875-1.60938 1.76563-1.89063 1.78125-1.95313 1.98438-2.23438 2.17188-2.51563 2.5-2.875 3.03125-2.875 3.42188-2.875 3.4375-2.51563 3.4375-2.39063 3.4375-1.96875 3.14063-1.20313 3.03125-0.90625 2.95313-0.703125 2.92188-0.640625 2.92188-0.53125 2.92188-0.15625 3.21875 0.0625 3.57813 0.0625 4.28125 0.0625 4.57813-0.890625 4.57813-1 4.57813-1.09375 4.5-1.09375 4.46875-1.09375 4.375-1.09375 4.375-1.04688 4.34375-0.96875 4.1875-0.40625 3.875-0.125 3.60938-0.125 3.45313-0.125 3.42188-0.21875 3.42188-0.375 3.42188-0.53125 3.46875-0.625 3.59375-0.9375 3.67188-1.15625 3.95313-1.89063 3.95313-2.28125 3.95313-2.95313 3.42188-3.07813 3.04688-3.07813 2.46875-3.07813 2.07813-2.71875 1.875-2.4375 1.82813-2.92188 1.42188-3.07813 1.125-3.07813 0.828125-3.07813 0.671875-2.85938 0.578125-2.70313 0.421875-2.4375 0.328125-2.04688 0.328125-2 0.328125-1.92188 0.421875-1.92188 0.453125-1.92188 0.546875-1.92188 0.546875-1.9375 0.59375-2.125 0.703125-2.53125 0.84375-2.875 1.10938-2.875 1.29688-2.875 1.34375-2.71875 1.34375-2.53125 1.34375-2.40625 1.28125-2.14063 1.21875-1.95313 1.17188-1.76563 1.10938-1.48438 1.07813-1.32813Z"
           id="path7580" />
      </symbol>
      <symbol
         id="symbol3655"
         overflow="visible">
        <path
           d="M2.1875-4.625C2.1875-4.64063 2.20313-4.73438 2.20313-4.73438 2.20313-4.78125 2.1875-4.84375 2.09375-4.84375 1.95313-4.84375 1.375-4.78125 1.20313-4.76563 1.15625-4.76563 1.04688-4.75 1.04688-4.60938 1.04688-4.51563 1.15625-4.51563 1.23438-4.51563 1.5625-4.51563 1.5625-4.45313 1.5625-4.40625 1.5625-4.35938 1.54688-4.3125 1.54688-4.25L0.5625-0.3125C0.515625-0.1875 0.515625-0.171875 0.515625-0.15625 0.515625-0.046875 0.609375 0.0625 0.765625 0.0625 0.953125 0.0625 1.03125-0.0625 1.07813-0.21875 1.09375-0.25 1.39063-1.48438 1.42188-1.57813 1.92188-1.53125 2.3125-1.35938 2.3125-1 2.3125-0.96875 2.3125-0.9375 2.29688-0.859375 2.26563-0.765625 2.26563-0.71875 2.26563-0.640625 2.26563-0.15625 2.67188 0.0625 3.01563 0.0625 3.6875 0.0625 3.89063-0.984375 3.89063-1 3.89063-1.09375 3.8125-1.09375 3.78125-1.09375 3.6875-1.09375 3.67188-1.04688 3.64063-0.921875 3.5625-0.625 3.375-0.125 3.03125-0.125 2.84375-0.125 2.78125-0.296875 2.78125-0.484375 2.78125-0.609375 2.78125-0.625 2.82813-0.796875 2.84375-0.828125 2.85938-0.9375 2.85938-1.01563 2.85938-1.64063 2.03125-1.73438 1.73438-1.75 1.9375-1.875 2.1875-2.10938 2.3125-2.21875 2.67188-2.54688 3.01563-2.875 3.40625-2.875 3.48438-2.875 3.57813-2.85938 3.64063-2.78125 3.34375-2.73438 3.28125-2.5 3.28125-2.39063 3.28125-2.25 3.39063-2.14063 3.54688-2.14063 3.75-2.14063 3.95313-2.29688 3.95313-2.57813 3.95313-2.8125 3.78125-3.07813 3.42188-3.07813 3.01563-3.07813 2.65625-2.78125 2.29688-2.45313 2-2.1875 1.78125-1.96875 1.48438-1.84375Z"
           id="path8468" />
      </symbol>
      <symbol
         id="symbol9947"
         overflow="visible">
        <path
           d=""
           id="path339" />
      </symbol>
      <symbol
         id="symbol3480"
         overflow="visible">
        <path
           d="M6.40625-1.57813C5.53125-0.9375 5.42188-0.015625 5.42188-0.015625 5.42188 0.09375 5.48438 0.09375 5.57813 0.09375 5.70313 0.09375 5.73438 0.09375 5.76563-0.03125 5.8125-0.203125 5.92188-0.640625 6.28125-1.03125 6.6875-1.45313 7.03125-1.5625 7.32813-1.65625 7.35938-1.67188 7.39063-1.70313 7.39063-1.73438 7.39063-1.8125 7.35938-1.82813 7.26563-1.85938 6.26563-2.17188 5.90625-2.89063 5.75-3.5 5.73438-3.57813 5.67188-3.57813 5.57813-3.57813 5.48438-3.57813 5.42188-3.57813 5.42188-3.48438 5.42188-3.46875 5.48438-3 5.82813-2.51563 5.98438-2.28125 6.1875-2.07813 6.40625-1.92188L0.8125-1.92188C0.703125-1.92188 0.53125-1.92188 0.53125-1.75 0.53125-1.57813 0.703125-1.57813 0.8125-1.57813Z"
           id="path8604" />
      </symbol>
      <symbol
         id="symbol5804"
         overflow="visible">
        <path
           d="M4.03125-1.90625C3.65625-2.34375 3.54688-2.45313 3.28125-2.64063 2.85938-2.95313 2.40625-3.07813 2.03125-3.07813 1.15625-3.07813 0.53125-2.32813 0.53125-1.5 0.53125-0.6875 1.14063 0.0625 2 0.0625 2.96875 0.0625 3.65625-0.71875 3.90625-1.09375 4.26563-0.65625 4.39063-0.546875 4.64063-0.359375 5.07813-0.046875 5.51563 0.0625 5.90625 0.0625 6.76563 0.0625 7.39063-0.671875 7.39063-1.5 7.39063-2.32813 6.79688-3.07813 5.92188-3.07813 4.95313-3.07813 4.28125-2.28125 4.03125-1.90625ZM4.25-1.65625C4.53125-2.10938 5.14063-2.8125 5.98438-2.8125 6.70313-2.8125 7.20313-2.17188 7.20313-1.5 7.20313-0.84375 6.65625-0.3125 6.01563-0.3125 5.35938-0.3125 4.92188-0.84375 4.25-1.65625ZM3.67188-1.35938C3.40625-0.90625 2.79688-0.1875 1.9375-0.1875 1.21875-0.1875 0.734375-0.828125 0.734375-1.5 0.734375-2.17188 1.28125-2.6875 1.92188-2.6875 2.5625-2.6875 3.01563-2.15625 3.67188-1.35938Z"
           id="path5526" />
      </symbol>
      <symbol
         id="symbol8512"
         overflow="visible">
        <path
           d=""
           id="path2592" />
      </symbol>
      <symbol
         id="symbol9568"
         overflow="visible">
        <path
           d="M12.625 13.9531 13.8281 10.7656 13.5781 10.7656C13.1875 11.7969 12.125 12.4844 10.9844 12.7813 10.7813 12.8281 9.79688 13.0938 7.89063 13.0938L1.875 13.0938 6.95313 7.14063C7.01563 7.0625 7.03125 7.03125 7.03125 6.98438 7.03125 6.95313 7.03125 6.92188 6.96875 6.82813L2.32813 0.484375 7.78125 0.484375C9.125 0.484375 10.0313 0.625 10.125 0.640625 10.6563 0.71875 11.5313 0.890625 12.3125 1.39063 12.5625 1.54688 13.2344 2 13.5781 2.79688L13.8281 2.79688 12.625 0 0.84375 0C0.609375 0 0.59375 0.015625 0.5625 0.0625 0.5625 0.09375 0.5625 0.296875 0.5625 0.40625L5.82813 7.60938 0.671875 13.6719C0.5625 13.7813 0.5625 13.8438 0.5625 13.8438 0.5625 13.9531 0.65625 13.9531 0.84375 13.9531Z"
           id="path5497" />
      </symbol>
    </g>
    <g
       id="g6233">
      <symbol
         id="symbol5041"
         overflow="visible">
        <path
           d=""
           id="path9626" />
      </symbol>
      <symbol
         id="symbol3439"
         overflow="visible">
        <path
           d="M3.32813-3.01563C3.39063-3.26563 3.625-4.1875 4.3125-4.1875 4.35938-4.1875 4.60938-4.1875 4.8125-4.0625 4.53125-4 4.34375-3.76563 4.34375-3.51563 4.34375-3.35938 4.45313-3.17188 4.71875-3.17188 4.9375-3.17188 5.25-3.34375 5.25-3.75 5.25-4.26563 4.67188-4.40625 4.32813-4.40625 3.75-4.40625 3.40625-3.875 3.28125-3.65625 3.03125-4.3125 2.5-4.40625 2.20313-4.40625 1.17188-4.40625 0.59375-3.125 0.59375-2.875 0.59375-2.76563 0.703125-2.76563 0.71875-2.76563 0.796875-2.76563 0.828125-2.79688 0.84375-2.875 1.1875-3.9375 1.84375-4.1875 2.1875-4.1875 2.375-4.1875 2.71875-4.09375 2.71875-3.51563 2.71875-3.20313 2.54688-2.54688 2.1875-1.14063 2.03125-0.53125 1.67188-0.109375 1.23438-0.109375 1.17188-0.109375 0.953125-0.109375 0.734375-0.234375 0.984375-0.296875 1.20313-0.5 1.20313-0.78125 1.20313-1.04688 0.984375-1.125 0.84375-1.125 0.53125-1.125 0.296875-0.875 0.296875-0.546875 0.296875-0.09375 0.78125 0.109375 1.21875 0.109375 1.89063 0.109375 2.25-0.59375 2.26563-0.640625 2.39063-0.28125 2.75 0.109375 3.34375 0.109375 4.375 0.109375 4.9375-1.17188 4.9375-1.42188 4.9375-1.53125 4.85938-1.53125 4.82813-1.53125 4.73438-1.53125 4.71875-1.48438 4.6875-1.42188 4.35938-0.34375 3.6875-0.109375 3.375-0.109375 2.98438-0.109375 2.82813-0.421875 2.82813-0.765625 2.82813-0.984375 2.875-1.20313 2.98438-1.64063Z"
           id="path977" />
      </symbol>
    </g>
    <g
       id="g529">
      <symbol
         id="symbol2061"
         overflow="visible">
        <path
           d=""
           id="path6941" />
      </symbol>
      <symbol
         id="symbol8753"
         overflow="visible">
        <path
           d="M4.8125-6.65625C4.8125-6.70313 4.82813-6.76563 4.82813-6.8125 4.82813-6.90625 4.76563-6.92188 4.71875-6.92188 4.60938-6.92188 4.60938-6.89063 4.5625-6.71875L2.90625-0.125C2.15625-0.21875 1.78125-0.59375 1.78125-1.25 1.78125-1.45313 1.78125-1.70313 2.3125-3.09375 2.35938-3.21875 2.42188-3.39063 2.42188-3.59375 2.42188-4.03125 2.10938-4.40625 1.60938-4.40625 0.65625-4.40625 0.296875-2.95313 0.296875-2.875 0.296875-2.76563 0.390625-2.76563 0.40625-2.76563 0.515625-2.76563 0.515625-2.79688 0.5625-2.95313 0.84375-3.89063 1.23438-4.1875 1.57813-4.1875 1.65625-4.1875 1.82813-4.1875 1.82813-3.875 1.82813-3.60938 1.71875-3.35938 1.59375-3.01563 1.10938-1.75 1.10938-1.5 1.10938-1.32813 1.10938-0.375 1.89063 0.03125 2.84375 0.09375 2.76563 0.453125 2.76563 0.46875 2.625 1 2.60938 1.10938 2.40625 1.90625 2.40625 1.9375 2.40625 1.95313 2.40625 2.04688 2.51563 2.04688 2.54688 2.04688 2.59375 2.04688 2.60938 2 2.64063 1.98438 2.70313 1.73438 2.73438 1.59375L3.10938 0.109375C3.48438 0.109375 4.35938 0.109375 5.29688-0.953125 5.70313-1.42188 5.90625-1.85938 6.01563-2.15625 6.10938-2.40625 6.32813-3.26563 6.32813-3.70313 6.32813-4.26563 6.0625-4.40625 5.89063-4.40625 5.64063-4.40625 5.39063-4.14063 5.39063-3.92188 5.39063-3.79688 5.45313-3.73438 5.54688-3.65625 5.65625-3.54688 5.90625-3.29688 5.90625-2.8125 5.90625-2.17188 5.39063-1.35938 5.03125-1 4.15625-0.109375 3.51563-0.109375 3.15625-0.109375Z"
           id="path940" />
      </symbol>
      <symbol
         id="symbol82"
         overflow="visible">
        <path
           d="M0.875-0.59375C0.84375-0.4375 0.78125-0.203125 0.78125-0.15625 0.78125 0.015625 0.921875 0.109375 1.07813 0.109375 1.20313 0.109375 1.375 0.03125 1.45313-0.171875 1.45313-0.1875 1.57813-0.65625 1.64063-0.90625L1.85938-1.79688C1.90625-2.03125 1.96875-2.25 2.03125-2.46875 2.0625-2.64063 2.14063-2.9375 2.15625-2.96875 2.29688-3.28125 2.82813-4.1875 3.78125-4.1875 4.23438-4.1875 4.3125-3.8125 4.3125-3.48438 4.3125-2.875 3.82813-1.59375 3.67188-1.17188 3.57813-0.9375 3.5625-0.8125 3.5625-0.703125 3.5625-0.234375 3.92188 0.109375 4.39063 0.109375 5.32813 0.109375 5.6875-1.34375 5.6875-1.42188 5.6875-1.53125 5.60938-1.53125 5.57813-1.53125 5.46875-1.53125 5.46875-1.5 5.42188-1.34375 5.21875-0.671875 4.89063-0.109375 4.40625-0.109375 4.23438-0.109375 4.17188-0.203125 4.17188-0.4375 4.17188-0.6875 4.25-0.921875 4.34375-1.14063 4.53125-1.67188 4.95313-2.76563 4.95313-3.34375 4.95313-4 4.53125-4.40625 3.8125-4.40625 2.90625-4.40625 2.42188-3.76563 2.25-3.53125 2.20313-4.09375 1.79688-4.40625 1.32813-4.40625 0.875-4.40625 0.6875-4.01563 0.59375-3.84375 0.421875-3.5 0.296875-2.90625 0.296875-2.875 0.296875-2.76563 0.390625-2.76563 0.40625-2.76563 0.515625-2.76563 0.515625-2.78125 0.578125-3 0.75-3.70313 0.953125-4.1875 1.3125-4.1875 1.5-4.1875 1.60938-4.0625 1.60938-3.73438 1.60938-3.51563 1.57813-3.40625 1.45313-2.89063Z"
           id="path9973" />
      </symbol>
      <symbol
         id="symbol5789"
         overflow="visible">
        <path
           d="M1.85938-2.29688C2.15625-2.29688 2.89063-2.32813 3.39063-2.53125 4.09375-2.82813 4.14063-3.42188 4.14063-3.5625 4.14063-4 3.76563-4.40625 3.07813-4.40625 1.96875-4.40625 0.453125-3.4375 0.453125-1.6875 0.453125-0.671875 1.04688 0.109375 2.03125 0.109375 3.45313 0.109375 4.28125-0.953125 4.28125-1.0625 4.28125-1.125 4.23438-1.20313 4.17188-1.20313 4.10938-1.20313 4.09375-1.17188 4.03125-1.09375 3.25-0.109375 2.15625-0.109375 2.04688-0.109375 1.26563-0.109375 1.17188-0.953125 1.17188-1.26563 1.17188-1.39063 1.1875-1.6875 1.32813-2.29688ZM1.39063-2.51563C1.78125-4.03125 2.8125-4.1875 3.07813-4.1875 3.53125-4.1875 3.8125-3.89063 3.8125-3.5625 3.8125-2.51563 2.21875-2.51563 1.79688-2.51563Z"
           id="path1829" />
      </symbol>
      <symbol
         id="symbol203"
         overflow="visible">
        <path
           d=""
           id="path4946" />
      </symbol>
      <symbol
         id="symbol4558"
         overflow="visible">
        <path
           d="M6.84375-3.26563C7-3.26563 7.1875-3.26563 7.1875-3.45313 7.1875-3.65625 7-3.65625 6.85938-3.65625L0.890625-3.65625C0.75-3.65625 0.5625-3.65625 0.5625-3.45313 0.5625-3.26563 0.75-3.26563 0.890625-3.26563ZM6.85938-1.32813C7-1.32813 7.1875-1.32813 7.1875-1.53125 7.1875-1.71875 7-1.71875 6.84375-1.71875L0.890625-1.71875C0.75-1.71875 0.5625-1.71875 0.5625-1.53125 0.5625-1.32813 0.75-1.32813 0.890625-1.32813Z"
           id="path3547" />
      </symbol>
      <symbol
         id="symbol15"
         overflow="visible">
        <path
           d=""
           id="path6519" />
      </symbol>
      <symbol
         id="symbol3137"
         overflow="visible">
        <path
           d="M3-2.625C2.82813-2.57813 2.70313-2.4375 2.70313-2.29688 2.70313-2.125 2.84375-2.0625 2.9375-2.0625 3.01563-2.0625 3.28125-2.10938 3.28125-2.46875 3.28125-2.92188 2.78125-3.07813 2.34375-3.07813 1.26563-3.07813 1.0625-2.26563 1.0625-2.0625 1.0625-1.79688 1.21875-1.625 1.3125-1.54688 1.48438-1.40625 1.60938-1.375 2.09375-1.29688 2.25-1.26563 2.6875-1.1875 2.6875-0.84375 2.6875-0.71875 2.60938-0.453125 2.32813-0.28125 2.04688-0.125 1.70313-0.125 1.625-0.125 1.34375-0.125 0.953125-0.1875 0.78125-0.421875 1.01563-0.453125 1.17188-0.625 1.17188-0.8125 1.17188-0.984375 1.04688-1.07813 0.90625-1.07813 0.703125-1.07813 0.5-0.90625 0.5-0.609375 0.5-0.1875 0.9375 0.0625 1.60938 0.0625 2.90625 0.0625 3.14063-0.8125 3.14063-1.07813 3.14063-1.71875 2.4375-1.84375 2.17188-1.89063 2.10938-1.90625 1.9375-1.9375 1.89063-1.95313 1.64063-2 1.51563-2.14063 1.51563-2.29688 1.51563-2.45313 1.64063-2.64063 1.79688-2.75 1.98438-2.85938 2.21875-2.875 2.34375-2.875 2.48438-2.875 2.84375-2.85938 3-2.625Z"
           id="path4498" />
      </symbol>
      <symbol
         id="symbol1329"
         overflow="visible">
        <path
           d="M2.26563-4.35938C2.26563-4.46875 2.17188-4.625 1.98438-4.625 1.79688-4.625 1.59375-4.4375 1.59375-4.23438 1.59375-4.125 1.67188-3.96875 1.875-3.96875 2.0625-3.96875 2.26563-4.17188 2.26563-4.35938ZM0.84375-0.8125C0.8125-0.71875 0.78125-0.640625 0.78125-0.515625 0.78125-0.1875 1.04688 0.0625 1.4375 0.0625 2.125 0.0625 2.4375-0.890625 2.4375-1 2.4375-1.09375 2.34375-1.09375 2.32813-1.09375 2.23438-1.09375 2.21875-1.04688 2.1875-0.96875 2.03125-0.40625 1.73438-0.125 1.45313-0.125 1.3125-0.125 1.28125-0.21875 1.28125-0.375 1.28125-0.53125 1.32813-0.65625 1.39063-0.8125 1.46875-1 1.54688-1.1875 1.60938-1.375 1.67188-1.54688 1.9375-2.17188 1.95313-2.26563 1.98438-2.32813 2-2.40625 2-2.48438 2-2.8125 1.71875-3.07813 1.34375-3.07813 0.640625-3.07813 0.328125-2.125 0.328125-2 0.328125-1.92188 0.421875-1.92188 0.453125-1.92188 0.546875-1.92188 0.546875-1.95313 0.578125-2.03125 0.75-2.625 1.0625-2.875 1.3125-2.875 1.42188-2.875 1.48438-2.82813 1.48438-2.64063 1.48438-2.46875 1.45313-2.375 1.28125-1.9375Z"
           id="path3494" />
      </symbol>
      <symbol
         id="symbol1920"
         overflow="visible">
        <path
           d="M3.42188-4.75C3.42188-4.84375 3.34375-4.84375 3.3125-4.84375 3.20313-4.84375 3.20313-4.79688 3.17188-4.6875L2.78125-3.09375C1.54688-3.03125 0.484375-2.14063 0.484375-1.21875 0.484375-0.421875 1.20313 0.046875 1.98438 0.078125 1.92188 0.296875 1.875 0.515625 1.8125 0.734375 1.73438 1.0625 1.67188 1.3125 1.67188 1.34375 1.67188 1.42188 1.76563 1.42188 1.78125 1.42188 1.89063 1.42188 1.89063 1.40625 1.9375 1.25L2.21875 0.078125C3.42188 0.03125 4.51563-0.84375 4.51563-1.79688 4.51563-2.51563 3.875-3.04688 3.01563-3.07813ZM2.03125-0.125C1.48438-0.140625 1-0.4375 1-1.09375 1-1.79688 1.53125-2.78125 2.71875-2.89063ZM2.96875-2.89063C3.5-2.85938 4-2.57813 4-1.90625 4-1.15625 3.40625-0.21875 2.26563-0.125Z"
           id="path8080" />
      </symbol>
      <symbol
         id="symbol9557"
         overflow="visible">
        <path
           d=""
           id="path2120" />
      </symbol>
      <symbol
         id="symbol4323"
         overflow="visible">
        <path
           d="M1.98438-3.17188C1.98438-3.3125 1.96875-3.3125 1.79688-3.3125 1.45313-3 0.890625-3 0.796875-3L0.71875-3 0.71875-2.78125 0.796875-2.78125C0.90625-2.78125 1.23438-2.79688 1.53125-2.92188L1.53125-0.421875C1.53125-0.28125 1.53125-0.21875 1-0.21875L0.75-0.21875 0.75 0C1.01563-0.015625 1.46875-0.015625 1.75-0.015625 2.04688-0.015625 2.48438-0.015625 2.76563 0L2.76563-0.21875 2.51563-0.21875C1.98438-0.21875 1.98438-0.28125 1.98438-0.421875Z"
           id="path15" />
      </symbol>
    </g>
    <g
       id="g3854">
      <symbol
         id="symbol3294"
         overflow="visible">
        <path
           d=""
           id="path7156" />
      </symbol>
      <symbol
         id="symbol4697"
         overflow="visible">
        <path
           d="M4.8125-6.65625C4.8125-6.70313 4.82813-6.76563 4.82813-6.8125 4.82813-6.90625 4.76563-6.92188 4.71875-6.92188 4.60938-6.92188 4.60938-6.89063 4.5625-6.71875L2.90625-0.125C2.15625-0.21875 1.78125-0.59375 1.78125-1.25 1.78125-1.45313 1.78125-1.70313 2.3125-3.09375 2.35938-3.21875 2.42188-3.39063 2.42188-3.59375 2.42188-4.03125 2.10938-4.40625 1.60938-4.40625 0.65625-4.40625 0.296875-2.95313 0.296875-2.875 0.296875-2.76563 0.390625-2.76563 0.40625-2.76563 0.515625-2.76563 0.515625-2.79688 0.5625-2.95313 0.84375-3.89063 1.23438-4.1875 1.57813-4.1875 1.65625-4.1875 1.82813-4.1875 1.82813-3.875 1.82813-3.60938 1.71875-3.35938 1.59375-3.01563 1.10938-1.75 1.10938-1.5 1.10938-1.32813 1.10938-0.375 1.89063 0.03125 2.84375 0.09375 2.76563 0.453125 2.76563 0.46875 2.625 1 2.60938 1.10938 2.40625 1.90625 2.40625 1.9375 2.40625 1.95313 2.40625 2.04688 2.51563 2.04688 2.54688 2.04688 2.59375 2.04688 2.60938 2 2.64063 1.98438 2.70313 1.73438 2.73438 1.59375L3.10938 0.109375C3.48438 0.109375 4.35938 0.109375 5.29688-0.953125 5.70313-1.42188 5.90625-1.85938 6.01563-2.15625 6.10938-2.40625 6.32813-3.26563 6.32813-3.70313 6.32813-4.26563 6.0625-4.40625 5.89063-4.40625 5.64063-4.40625 5.39063-4.14063 5.39063-3.92188 5.39063-3.79688 5.45313-3.73438 5.54688-3.65625 5.65625-3.54688 5.90625-3.29688 5.90625-2.8125 5.90625-2.17188 5.39063-1.35938 5.03125-1 4.15625-0.109375 3.51563-0.109375 3.15625-0.109375Z"
           id="path786" />
      </symbol>
      <symbol
         id="symbol1612"
         overflow="visible">
        <path
           d="M0.875-0.59375C0.84375-0.4375 0.78125-0.203125 0.78125-0.15625 0.78125 0.015625 0.921875 0.109375 1.07813 0.109375 1.20313 0.109375 1.375 0.03125 1.45313-0.171875 1.45313-0.1875 1.57813-0.65625 1.64063-0.90625L1.85938-1.79688C1.90625-2.03125 1.96875-2.25 2.03125-2.46875 2.0625-2.64063 2.14063-2.9375 2.15625-2.96875 2.29688-3.28125 2.82813-4.1875 3.78125-4.1875 4.23438-4.1875 4.3125-3.8125 4.3125-3.48438 4.3125-2.875 3.82813-1.59375 3.67188-1.17188 3.57813-0.9375 3.5625-0.8125 3.5625-0.703125 3.5625-0.234375 3.92188 0.109375 4.39063 0.109375 5.32813 0.109375 5.6875-1.34375 5.6875-1.42188 5.6875-1.53125 5.60938-1.53125 5.57813-1.53125 5.46875-1.53125 5.46875-1.5 5.42188-1.34375 5.21875-0.671875 4.89063-0.109375 4.40625-0.109375 4.23438-0.109375 4.17188-0.203125 4.17188-0.4375 4.17188-0.6875 4.25-0.921875 4.34375-1.14063 4.53125-1.67188 4.95313-2.76563 4.95313-3.34375 4.95313-4 4.53125-4.40625 3.8125-4.40625 2.90625-4.40625 2.42188-3.76563 2.25-3.53125 2.20313-4.09375 1.79688-4.40625 1.32813-4.40625 0.875-4.40625 0.6875-4.01563 0.59375-3.84375 0.421875-3.5 0.296875-2.90625 0.296875-2.875 0.296875-2.76563 0.390625-2.76563 0.40625-2.76563 0.515625-2.76563 0.515625-2.78125 0.578125-3 0.75-3.70313 0.953125-4.1875 1.3125-4.1875 1.5-4.1875 1.60938-4.0625 1.60938-3.73438 1.60938-3.51563 1.57813-3.40625 1.45313-2.89063Z"
           id="path5607" />
      </symbol>
      <symbol
         id="symbol1249"
         overflow="visible">
        <path
           d="M1.85938-2.29688C2.15625-2.29688 2.89063-2.32813 3.39063-2.53125 4.09375-2.82813 4.14063-3.42188 4.14063-3.5625 4.14063-4 3.76563-4.40625 3.07813-4.40625 1.96875-4.40625 0.453125-3.4375 0.453125-1.6875 0.453125-0.671875 1.04688 0.109375 2.03125 0.109375 3.45313 0.109375 4.28125-0.953125 4.28125-1.0625 4.28125-1.125 4.23438-1.20313 4.17188-1.20313 4.10938-1.20313 4.09375-1.17188 4.03125-1.09375 3.25-0.109375 2.15625-0.109375 2.04688-0.109375 1.26563-0.109375 1.17188-0.953125 1.17188-1.26563 1.17188-1.39063 1.1875-1.6875 1.32813-2.29688ZM1.39063-2.51563C1.78125-4.03125 2.8125-4.1875 3.07813-4.1875 3.53125-4.1875 3.8125-3.89063 3.8125-3.5625 3.8125-2.51563 2.21875-2.51563 1.79688-2.51563Z"
           id="path6435" />
      </symbol>
      <symbol
         id="symbol1107"
         overflow="visible">
        <path
           d=""
           id="path5664" />
      </symbol>
      <symbol
         id="symbol6676"
         overflow="visible">
        <path
           d="M6.84375-3.26563C7-3.26563 7.1875-3.26563 7.1875-3.45313 7.1875-3.65625 7-3.65625 6.85938-3.65625L0.890625-3.65625C0.75-3.65625 0.5625-3.65625 0.5625-3.45313 0.5625-3.26563 0.75-3.26563 0.890625-3.26563ZM6.85938-1.32813C7-1.32813 7.1875-1.32813 7.1875-1.53125 7.1875-1.71875 7-1.71875 6.84375-1.71875L0.890625-1.71875C0.75-1.71875 0.5625-1.71875 0.5625-1.53125 0.5625-1.32813 0.75-1.32813 0.890625-1.32813Z"
           id="path773" />
      </symbol>
      <symbol
         id="symbol372"
         overflow="visible">
        <path
           d=""
           id="path815" />
      </symbol>
      <symbol
         id="symbol4003"
         overflow="visible">
        <path
           d="M3-2.625C2.82813-2.57813 2.70313-2.4375 2.70313-2.29688 2.70313-2.125 2.84375-2.0625 2.9375-2.0625 3.01563-2.0625 3.28125-2.10938 3.28125-2.46875 3.28125-2.92188 2.78125-3.07813 2.34375-3.07813 1.26563-3.07813 1.0625-2.26563 1.0625-2.0625 1.0625-1.79688 1.21875-1.625 1.3125-1.54688 1.48438-1.40625 1.60938-1.375 2.09375-1.29688 2.25-1.26563 2.6875-1.1875 2.6875-0.84375 2.6875-0.71875 2.60938-0.453125 2.32813-0.28125 2.04688-0.125 1.70313-0.125 1.625-0.125 1.34375-0.125 0.953125-0.1875 0.78125-0.421875 1.01563-0.453125 1.17188-0.625 1.17188-0.8125 1.17188-0.984375 1.04688-1.07813 0.90625-1.07813 0.703125-1.07813 0.5-0.90625 0.5-0.609375 0.5-0.1875 0.9375 0.0625 1.60938 0.0625 2.90625 0.0625 3.14063-0.8125 3.14063-1.07813 3.14063-1.71875 2.4375-1.84375 2.17188-1.89063 2.10938-1.90625 1.9375-1.9375 1.89063-1.95313 1.64063-2 1.51563-2.14063 1.51563-2.29688 1.51563-2.45313 1.64063-2.64063 1.79688-2.75 1.98438-2.85938 2.21875-2.875 2.34375-2.875 2.48438-2.875 2.84375-2.85938 3-2.625Z"
           id="path3433" />
      </symbol>
      <symbol
         id="symbol1704"
         overflow="visible">
        <path
           d="M2.26563-4.35938C2.26563-4.46875 2.17188-4.625 1.98438-4.625 1.79688-4.625 1.59375-4.4375 1.59375-4.23438 1.59375-4.125 1.67188-3.96875 1.875-3.96875 2.0625-3.96875 2.26563-4.17188 2.26563-4.35938ZM0.84375-0.8125C0.8125-0.71875 0.78125-0.640625 0.78125-0.515625 0.78125-0.1875 1.04688 0.0625 1.4375 0.0625 2.125 0.0625 2.4375-0.890625 2.4375-1 2.4375-1.09375 2.34375-1.09375 2.32813-1.09375 2.23438-1.09375 2.21875-1.04688 2.1875-0.96875 2.03125-0.40625 1.73438-0.125 1.45313-0.125 1.3125-0.125 1.28125-0.21875 1.28125-0.375 1.28125-0.53125 1.32813-0.65625 1.39063-0.8125 1.46875-1 1.54688-1.1875 1.60938-1.375 1.67188-1.54688 1.9375-2.17188 1.95313-2.26563 1.98438-2.32813 2-2.40625 2-2.48438 2-2.8125 1.71875-3.07813 1.34375-3.07813 0.640625-3.07813 0.328125-2.125 0.328125-2 0.328125-1.92188 0.421875-1.92188 0.453125-1.92188 0.546875-1.92188 0.546875-1.95313 0.578125-2.03125 0.75-2.625 1.0625-2.875 1.3125-2.875 1.42188-2.875 1.48438-2.82813 1.48438-2.64063 1.48438-2.46875 1.45313-2.375 1.28125-1.9375Z"
           id="path5255" />
      </symbol>
      <symbol
         id="symbol2864"
         overflow="visible">
        <path
           d="M3.42188-4.75C3.42188-4.84375 3.34375-4.84375 3.3125-4.84375 3.20313-4.84375 3.20313-4.79688 3.17188-4.6875L2.78125-3.09375C1.54688-3.03125 0.484375-2.14063 0.484375-1.21875 0.484375-0.421875 1.20313 0.046875 1.98438 0.078125 1.92188 0.296875 1.875 0.515625 1.8125 0.734375 1.73438 1.0625 1.67188 1.3125 1.67188 1.34375 1.67188 1.42188 1.76563 1.42188 1.78125 1.42188 1.89063 1.42188 1.89063 1.40625 1.9375 1.25L2.21875 0.078125C3.42188 0.03125 4.51563-0.84375 4.51563-1.79688 4.51563-2.51563 3.875-3.04688 3.01563-3.07813ZM2.03125-0.125C1.48438-0.140625 1-0.4375 1-1.09375 1-1.79688 1.53125-2.78125 2.71875-2.89063ZM2.96875-2.89063C3.5-2.85938 4-2.57813 4-1.90625 4-1.15625 3.40625-0.21875 2.26563-0.125Z"
           id="path1050" />
      </symbol>
      <symbol
         id="symbol3717"
         overflow="visible">
        <path
           d=""
           id="path2384" />
      </symbol>
      <symbol
         id="symbol6716"
         overflow="visible">
        <path
           d="M2.9375-0.96875 2.71875-0.96875C2.71875-0.875 2.65625-0.5625 2.57813-0.515625 2.54688-0.484375 2.125-0.484375 2.04688-0.484375L1.07813-0.484375C1.40625-0.71875 1.76563-1 2.0625-1.20313 2.51563-1.51563 2.9375-1.79688 2.9375-2.32813 2.9375-2.96875 2.32813-3.3125 1.625-3.3125 0.953125-3.3125 0.453125-2.9375 0.453125-2.4375 0.453125-2.1875 0.671875-2.14063 0.75-2.14063 0.875-2.14063 1.03125-2.23438 1.03125-2.4375 1.03125-2.60938 0.90625-2.71875 0.75-2.71875 0.890625-2.95313 1.1875-3.09375 1.51563-3.09375 2-3.09375 2.40625-2.8125 2.40625-2.32813 2.40625-1.90625 2.10938-1.57813 1.73438-1.26563L0.515625-0.234375C0.46875-0.1875 0.453125-0.1875 0.453125-0.15625L0.453125 0 2.76563 0Z"
           id="path4008" />
      </symbol>
    </g>
    <g
       id="g9344">
      <symbol
         id="symbol97"
         overflow="visible">
        <path
           d=""
           id="path5858" />
      </symbol>
      <symbol
         id="symbol8010"
         overflow="visible">
        <path
           d="M4.8125-6.65625C4.8125-6.70313 4.82813-6.76563 4.82813-6.8125 4.82813-6.90625 4.76563-6.92188 4.71875-6.92188 4.60938-6.92188 4.60938-6.89063 4.5625-6.71875L2.90625-0.125C2.15625-0.21875 1.78125-0.59375 1.78125-1.25 1.78125-1.45313 1.78125-1.70313 2.3125-3.09375 2.35938-3.21875 2.42188-3.39063 2.42188-3.59375 2.42188-4.03125 2.10938-4.40625 1.60938-4.40625 0.65625-4.40625 0.296875-2.95313 0.296875-2.875 0.296875-2.76563 0.390625-2.76563 0.40625-2.76563 0.515625-2.76563 0.515625-2.79688 0.5625-2.95313 0.84375-3.89063 1.23438-4.1875 1.57813-4.1875 1.65625-4.1875 1.82813-4.1875 1.82813-3.875 1.82813-3.60938 1.71875-3.35938 1.59375-3.01563 1.10938-1.75 1.10938-1.5 1.10938-1.32813 1.10938-0.375 1.89063 0.03125 2.84375 0.09375 2.76563 0.453125 2.76563 0.46875 2.625 1 2.60938 1.10938 2.40625 1.90625 2.40625 1.9375 2.40625 1.95313 2.40625 2.04688 2.51563 2.04688 2.54688 2.04688 2.59375 2.04688 2.60938 2 2.64063 1.98438 2.70313 1.73438 2.73438 1.59375L3.10938 0.109375C3.48438 0.109375 4.35938 0.109375 5.29688-0.953125 5.70313-1.42188 5.90625-1.85938 6.01563-2.15625 6.10938-2.40625 6.32813-3.26563 6.32813-3.70313 6.32813-4.26563 6.0625-4.40625 5.89063-4.40625 5.64063-4.40625 5.39063-4.14063 5.39063-3.92188 5.39063-3.79688 5.45313-3.73438 5.54688-3.65625 5.65625-3.54688 5.90625-3.29688 5.90625-2.8125 5.90625-2.17188 5.39063-1.35938 5.03125-1 4.15625-0.109375 3.51563-0.109375 3.15625-0.109375Z"
           id="path5590" />
      </symbol>
    </g>
    <g
       id="g6803">
      <symbol
         id="symbol3760"
         overflow="visible">
        <path
           d=""
           id="path3258" />
      </symbol>
      <symbol
         id="symbol5809"
         overflow="visible">
        <path
           d="M3.32813-3.01563C3.39063-3.26563 3.625-4.1875 4.3125-4.1875 4.35938-4.1875 4.60938-4.1875 4.8125-4.0625 4.53125-4 4.34375-3.76563 4.34375-3.51563 4.34375-3.35938 4.45313-3.17188 4.71875-3.17188 4.9375-3.17188 5.25-3.34375 5.25-3.75 5.25-4.26563 4.67188-4.40625 4.32813-4.40625 3.75-4.40625 3.40625-3.875 3.28125-3.65625 3.03125-4.3125 2.5-4.40625 2.20313-4.40625 1.17188-4.40625 0.59375-3.125 0.59375-2.875 0.59375-2.76563 0.703125-2.76563 0.71875-2.76563 0.796875-2.76563 0.828125-2.79688 0.84375-2.875 1.1875-3.9375 1.84375-4.1875 2.1875-4.1875 2.375-4.1875 2.71875-4.09375 2.71875-3.51563 2.71875-3.20313 2.54688-2.54688 2.1875-1.14063 2.03125-0.53125 1.67188-0.109375 1.23438-0.109375 1.17188-0.109375 0.953125-0.109375 0.734375-0.234375 0.984375-0.296875 1.20313-0.5 1.20313-0.78125 1.20313-1.04688 0.984375-1.125 0.84375-1.125 0.53125-1.125 0.296875-0.875 0.296875-0.546875 0.296875-0.09375 0.78125 0.109375 1.21875 0.109375 1.89063 0.109375 2.25-0.59375 2.26563-0.640625 2.39063-0.28125 2.75 0.109375 3.34375 0.109375 4.375 0.109375 4.9375-1.17188 4.9375-1.42188 4.9375-1.53125 4.85938-1.53125 4.82813-1.53125 4.73438-1.53125 4.71875-1.48438 4.6875-1.42188 4.35938-0.34375 3.6875-0.109375 3.375-0.109375 2.98438-0.109375 2.82813-0.421875 2.82813-0.765625 2.82813-0.984375 2.875-1.20313 2.98438-1.64063Z"
           id="path4918" />
      </symbol>
    </g>
  </defs>
  <g
     id="layer1">
    <path
       d="M16.1744 67.0355 16.1744 130.597"
       id="path3771"
       stroke="#000000"
       stroke-width="0.264583"
       fill="none"
       marker-start="url(#Arrow1Lstart)"
       style="stroke-width:0.52916654;stroke-dasharray:none" />
    <path
       d="M4.38111 123.735 191.11 123.735"
       id="path3773"
       stroke="#000000"
       stroke-width="0.264583"
       fill="none"
       marker-end="url(#Arrow1Lend)"
       style="stroke-width:0.52916654;stroke-dasharray:none" />
    <path
       d="M98.5906 93.0318 16.1939 93.0494"
       id="path4953"
       stroke="#000000"
       stroke-width="0.264583"
       fill="none"
       style="stroke-width:0.66145818;stroke-dasharray:none" />
    <path
       d="M98.5906 93.0318C98.6863 110.596 103.452 121.475 114.421 123.473"
       id="path5201"
       stroke="#000000"
       stroke-width="0.264583"
       stroke-dasharray="0.264583 0.264583"
       fill="none"
       style="stroke-width:0.66145818;stroke-dasharray:0.66145818,0.66145818;stroke-dashoffset:0" />
    <path
       d="M107.952 93.0382 190.349 93.0558"
       id="path4953-7"
       stroke="#000000"
       stroke-width="0.264583"
       fill="none"
       style="stroke-width:0.66145818;stroke-dasharray:none" />
    <path
       d="M107.952 93.0382C107.857 110.602 103.091 121.482 92.1215 123.479"
       id="path5201-5"
       stroke="#000000"
       stroke-width="0.264583"
       stroke-dasharray="0.264583 0.264583"
       fill="none"
       style="stroke-width:0.66145818;stroke-dasharray:0.66145818,0.66145818;stroke-dashoffset:0" />
    <path
       d="M98.5906 93.0318C101.358 108.35 104.287 112.672 107.952 93.0378"
       id="path5728"
       stroke="#000000"
       stroke-width="0.264583"
       fill="none"
       style="stroke-width:0.66145818;stroke-dasharray:none" />
    <g
       id="g6318"
       transform="translate(-86.9041 8.11115)"
       style="stroke-width:1.0110551;stroke-dasharray:none">
      <g
         id="g4617"
         style="stroke-width:1.0110551;stroke-dasharray:none">
        <g
           id="g922"
           style="stroke-width:1.0110551;stroke-dasharray:none">
          <use
             x="91.925"
             y="81.963"
             width="100%"
             height="100%"
             xlink:href="#symbol8010"
             id="use359"
             style="stroke-width:1.0110551;stroke-dasharray:none" />
        </g>
      </g>
    </g>
    <g
       id="g6770"
       transform="translate(82.279 52.1687)"
       style="stroke-width:1.0110551;stroke-dasharray:none">
      <g
         id="g1283"
         style="stroke-width:1.0110551;stroke-dasharray:none">
        <g
           id="g1365"
           style="stroke-width:1.0110551;stroke-dasharray:none">
          <use
             x="91.925"
             y="81.963"
             width="100%"
             height="100%"
             xlink:href="#symbol5809"
             id="use7540"
             style="stroke-width:1.0110551;stroke-dasharray:none" />
        </g>
      </g>
    </g>
    <path
       d="m 14.053382,15.865893 c 54.72999,11.0305 159.530178,18.4201 0.3131,45.0074"
       id="path1839"
       stroke="#000000"
       stroke-width="0.264583"
       fill="#008080" />
    <path
       d="M 192.73449,15.866387 C 137.46506,26.896645 31.632212,34.286083 192.4184,60.872799"
       id="path1839-3"
       stroke="#000000"
       stroke-width="0.265881"
       fill="#008080" />
    <g
       id="g3199"
       fill="#ffffff"
       transform="matrix(1.4671111,0,0,1.5110945,-118.62669,-81.048163)">
      <g
         id="g3372">
        <g
           id="g5221">
          <use
             x="91.925003"
             y="81.962997"
             width="100%"
             height="100%"
             xlink:href="#symbol8753"
             id="use9565" />
        </g>
        <g
           id="g6646">
          <use
             x="101.54"
             y="81.962997"
             width="100%"
             height="100%"
             xlink:href="#symbol4558"
             id="use6893" />
        </g>
        <g
           id="g2929">
          <use
             x="112.056"
             y="81.962997"
             width="100%"
             height="100%"
             xlink:href="#symbol82"
             id="use1282" />
        </g>
        <g
           id="g1899">
          <use
             x="118.036"
             y="83.457001"
             width="100%"
             height="100%"
             xlink:href="#symbol3137"
             id="use3496" />
        </g>
        <g
           id="g4711">
          <use
             x="122.294"
             y="81.962997"
             width="100%"
             height="100%"
             xlink:href="#symbol5789"
             id="use3551" />
        </g>
        <g
           id="g3046">
          <use
             x="126.933"
             y="78.348"
             width="100%"
             height="100%"
             xlink:href="#symbol1329"
             id="use8179" />
          <use
             x="129.752"
             y="78.348"
             width="100%"
             height="100%"
             xlink:href="#symbol1920"
             id="use7522" />
        </g>
        <g
           id="g1919">
          <use
             x="134.54201"
             y="79.344002"
             width="100%"
             height="100%"
             xlink:href="#symbol4323"
             id="use8981" />
        </g>
      </g>
    </g>
    <g
       id="g3516"
       fill="#ffffff"
       transform="translate(48.052672,-40.381026)">
      <g
         id="g2062"
         transform="matrix(1.4615396,0,0,1.5110945,-58.480138,-41.196304)">
        <g
           id="g9363">
          <use
             x="91.925003"
             y="81.962997"
             width="100%"
             height="100%"
             xlink:href="#symbol4697"
             id="use4072" />
        </g>
        <g
           id="g3561">
          <use
             x="101.54"
             y="81.962997"
             width="100%"
             height="100%"
             xlink:href="#symbol6676"
             id="use9801" />
        </g>
        <g
           id="g6397">
          <use
             x="112.056"
             y="81.962997"
             width="100%"
             height="100%"
             xlink:href="#symbol1612"
             id="use7545" />
        </g>
        <g
           id="g6649">
          <use
             x="118.036"
             y="83.457001"
             width="100%"
             height="100%"
             xlink:href="#symbol4003"
             id="use3942" />
        </g>
        <g
           id="g9788">
          <use
             x="122.294"
             y="81.962997"
             width="100%"
             height="100%"
             xlink:href="#symbol1249"
             id="use8521" />
        </g>
        <g
           id="g9888">
          <use
             x="126.933"
             y="78.348"
             width="100%"
             height="100%"
             xlink:href="#symbol1704"
             id="use1041" />
          <use
             x="129.752"
             y="78.348"
             width="100%"
             height="100%"
             xlink:href="#symbol2864"
             id="use2456" />
        </g>
        <g
           id="g6297">
          <use
             x="134.54201"
             y="79.344002"
             width="100%"
             height="100%"
             xlink:href="#symbol6716"
             id="use3992" />
        </g>
      </g>
    </g>
  </g>
</svg>
