<?xml version="1.0" encoding="UTF-8" standalone="no"?>
<svg
   width="652.36731"
   height="171.09006"
   viewBox="0 0 172.60547 45.267568"
   id="svg5"
   overflow="hidden"
   version="1.1"
   sodipodi:docname="JJ.svg"
   inkscape:version="1.3.2 (091e20ef0f, 2023-11-25)"
   xmlns:inkscape="http://www.inkscape.org/namespaces/inkscape"
   xmlns:sodipodi="http://sodipodi.sourceforge.net/DTD/sodipodi-0.dtd"
   xmlns:xlink="http://www.w3.org/1999/xlink"
   xmlns="http://www.w3.org/2000/svg"
   xmlns:svg="http://www.w3.org/2000/svg">
  <sodipodi:namedview
     id="namedview1"
     pagecolor="#ffffff"
     bordercolor="#000000"
     borderopacity="0.25"
     inkscape:showpageshadow="2"
     inkscape:pageopacity="0.0"
     inkscape:pagecheckerboard="0"
     inkscape:deskcolor="#d1d1d1"
     inkscape:zoom="1.5824599"
     inkscape:cx="331.13003"
     inkscape:cy="206.95627"
     inkscape:window-width="3840"
     inkscape:window-height="1243"
     inkscape:window-x="0"
     inkscape:window-y="393"
     inkscape:window-maximized="0"
     inkscape:current-layer="layer1" />
  <defs
     id="defs2">
    <marker
       markerUnits="strokeWidth"
       orient="auto"
       id="Arrow1Lend"
       overflow="visible">
      <path
         d="M 0,0 5,-5 -12.5,0 5,5 Z"
         id="path3915"
         stroke-width="1.33333"
         fill-rule="evenodd"
         transform="matrix(-0.8,0,0,-0.8,-10,0)" />
    </marker>
    <marker
       markerUnits="strokeWidth"
       orient="auto"
       id="Arrow1Lstart"
       overflow="visible">
      <path
         d="M 0,0 5,-5 -12.5,0 5,5 Z"
         id="path3912"
         stroke-width="1.33333"
         fill-rule="evenodd"
         transform="matrix(0.8,0,0,0.8,10,0)" />
    </marker>
    <g
       id="g4638">
      <symbol
         id="symbol981"
         overflow="visible">
        <path
           d=""
           id="path9325" />
      </symbol>
      <symbol
         id="symbol1842"
         overflow="visible">
        <path
           d="m 2.64063,-3.71875 h 1.125 C 3.4375,-2.25 3.34375,-1.8125 3.34375,-1.14063 c 0,0.14063 0,0.406255 0.07813,0.750005 0.10937,0.4375 0.21875,0.5 0.35937,0.5 0.20313,0 0.42188,-0.171875 0.42188,-0.375 0,-0.0625 0,-0.078125 -0.0625,-0.21875 C 3.84375,-1.20313 3.84375,-1.85938 3.84375,-2.14063 c 0,-0.51562 0.07813,-1.0625 0.1875,-1.57812 h 1.125 c 0.14063,0 0.5,0 0.5,-0.34375 0,-0.23438 -0.21875,-0.23438 -0.40625,-0.23438 H 1.90625 c -0.21875,0 -0.59375,0 -1.03125,0.46875 -0.34375,0.39063 -0.609375,0.84375 -0.609375,0.89063 0,0.01562 0,0.10937 0.125,0.10937 0.078125,0 0.09375,-0.04687 0.15625,-0.125 C 1.03125,-3.71875 1.60938,-3.71875 1.8125,-3.71875 H 2.375 c -0.3125,1.20312 -0.84375,2.40625 -1.26562,3.3125 -0.07813,0.15625 -0.07813,0.171875 -0.07813,0.25 0,0.1875 0.15625,0.265625 0.28125,0.265625 0.29688,0 0.375,-0.28125 0.5,-0.640625 C 1.95313,-1 1.95313,-1.01563 2.07813,-1.51563 Z"
           id="path3036" />
      </symbol>
      <symbol
         id="symbol5421"
         overflow="visible">
        <path
           d="m 2.85938,-6.8125 c 0,0 0,-0.10938 -0.125,-0.10938 -0.23438,0 -0.95313,0.07813 -1.21875,0.10938 -0.07813,0 -0.1875,0.01562 -0.1875,0.1875 0,0.125 0.09375,0.125 0.23437,0.125 0.48438,0 0.5,0.0625 0.5,0.17187 L 2.03125,-6.125 0.59375,-0.390625 c -0.046875,0.140625 -0.046875,0.15625 -0.046875,0.21875 0,0.234375 0.203125,0.28125 0.296875,0.28125 0.125,0 0.26563,-0.09375 0.32813,-0.203125 0.04687,-0.09375 0.5,-1.9375 0.5625,-2.1875 0.34375,0.03125 1.15625,0.1875 1.15625,0.84375 0,0.07812 0,0.10937 -0.03125,0.21875 -0.01563,0.10937 -0.03125,0.234375 -0.03125,0.34375 0,0.578125 0.39062,0.984375 0.90625,0.984375 0.29687,0 0.57812,-0.15625 0.79687,-0.53125 0.25,-0.4375 0.35938,-0.984375 0.35938,-1.000005 0,-0.10937 -0.09375,-0.10937 -0.125,-0.10937 -0.09375,0 -0.10938,0.04687 -0.14063,0.1875 -0.20312,0.71875 -0.42187,1.234375 -0.85937,1.234375 -0.20313,0 -0.32813,-0.109375 -0.32813,-0.46875 0,-0.171875 0.04688,-0.40625 0.07813,-0.562505 C 3.5625,-1.3125 3.5625,-1.34375 3.5625,-1.45313 3.5625,-2.09375 2.9375,-2.375 2.07813,-2.5 2.39063,-2.67188 2.71875,-2.98438 2.9375,-3.23438 3.42188,-3.76563 3.875,-4.1875 4.35938,-4.1875 c 0.0625,0 0.07812,0 0.09375,0.01562 0.125,0.01563 0.125,0.01563 0.21875,0.07813 0.01562,0 0.01562,0.01562 0.03125,0.03125 -0.46875,0.03125 -0.5625,0.42187 -0.5625,0.54687 0,0.15625 0.10937,0.34375 0.375,0.34375 0.26562,0 0.54687,-0.21875 0.54687,-0.60937 0,-0.29688 -0.23437,-0.625 -0.67187,-0.625 -0.28125,0 -0.73438,0.07812 -1.45313,0.875 -0.34375,0.375 -0.73437,0.78125 -1.10937,0.92187 z"
           id="path1397" />
      </symbol>
      <symbol
         id="symbol9740"
         overflow="visible">
        <path
           d=""
           id="path2145" />
      </symbol>
      <symbol
         id="symbol8080"
         overflow="visible">
        <path
           d="M 3.51563,-1.26563 H 3.28125 C 3.26563,-1.10938 3.1875,-0.703125 3.09375,-0.640625 3.04688,-0.59375 2.51563,-0.59375 2.40625,-0.59375 H 1.125 c 0.73438,-0.64063 0.98438,-0.84375 1.39063,-1.17188 0.51562,-0.40625 1,-0.84375 1,-1.5 0,-0.84375 -0.73438,-1.35937 -1.625,-1.35937 -0.85938,0 -1.45313,0.60937 -1.45313,1.25 0,0.34375 0.296875,0.39062 0.375,0.39062 0.15625,0 0.35938,-0.125 0.35938,-0.375 0,-0.125 -0.04688,-0.375 -0.406255,-0.375 C 0.984375,-4.21875 1.45313,-4.375 1.78125,-4.375 c 0.70313,0 1.0625,0.54687 1.0625,1.10937 0,0.60938 -0.4375,1.07813 -0.65625,1.32813 L 0.515625,-0.265625 C 0.4375,-0.203125 0.4375,-0.1875 0.4375,0 h 2.875 z"
           id="path1203" />
      </symbol>
      <symbol
         id="symbol694"
         overflow="visible">
        <path
           d="m 5.35938,-2.34375 c 0.09375,0 0.25,0 0.25,-0.17188 0,-0.17187 -0.15625,-0.17187 -0.25,-0.17187 H 0.75 c -0.09375,0 -0.265625,0 -0.265625,0.17187 0,0.17188 0.15625,0.17188 0.265625,0.17188 z m 0,1.53125 c 0.09375,0 0.25,0 0.25,-0.15625 0,-0.1875 -0.15625,-0.1875 -0.25,-0.1875 H 0.75 c -0.109375,0 -0.265625,0 -0.265625,0.1875 0,0.15625 0.171875,0.15625 0.265625,0.15625 z"
           id="path7868" />
      </symbol>
      <symbol
         id="symbol7459"
         overflow="visible">
        <path
           d="m 2.32813,-4.4375 c 0,-0.1875 0,-0.1875 -0.20313,-0.1875 -0.45312,0.4375 -1.07812,0.4375 -1.359375,0.4375 v 0.25 c 0.15625,0 0.625005,0 1.000005,-0.1875 v 3.546875 c 0,0.234375 0,0.328125 -0.6875,0.328125 H 0.8125 V 0 C 0.9375,0 1.79688,-0.03125 2.04688,-0.03125 2.26563,-0.03125 3.14063,0 3.29688,0 V -0.25 H 3.03125 c -0.70312,0 -0.70312,-0.09375 -0.70312,-0.328125 z"
           id="path935" />
      </symbol>
      <symbol
         id="symbol727"
         overflow="visible">
        <path
           d=""
           id="path6740" />
      </symbol>
      <symbol
         id="symbol9487"
         overflow="visible">
        <path
           d="m 1.3125,-3.26563 v -0.25 c 0,-2.51562 1.23438,-2.875 1.75,-2.875 0.23438,0 0.65625,0.0625 0.875,0.40625 -0.15625,0 -0.54687,0 -0.54687,0.4375 0,0.3125 0.23437,0.46875 0.45312,0.46875 0.15625,0 0.46875,-0.09375 0.46875,-0.48437 0,-0.59375 -0.4375,-1.07813 -1.26562,-1.07813 -1.28125,0 -2.625005,1.28125 -2.625005,3.48438 0,2.671875 1.156255,3.375 2.078125,3.375 1.10938,0 2.0625,-0.9375 2.0625,-2.25 0,-1.26563 -0.89062,-2.21875 -2,-2.21875 -0.67187,0 -1.04687,0.5 -1.25,0.98437 z M 2.5,-0.0625 c -0.625,0 -0.92187,-0.59375 -0.98437,-0.75 -0.1875,-0.46875 -0.1875,-1.26563 -0.1875,-1.4375 0,-0.78125 0.32812,-1.78125 1.21875,-1.78125 0.17187,0 0.625,0 0.9375,0.625 0.17187,0.35937 0.17187,0.875 0.17187,1.35937 0,0.48438 0,0.98438 -0.17187,1.343755 C 3.1875,-0.109375 2.73438,-0.0625 2.5,-0.0625 Z"
           id="path256" />
      </symbol>
      <symbol
         id="symbol8172"
         overflow="visible">
        <path
           d="m 6.84375,-3.26563 c 0.15625,0 0.34375,0 0.34375,-0.1875 C 7.1875,-3.65625 7,-3.65625 6.85938,-3.65625 H 0.890625 c -0.140625,0 -0.328125,0 -0.328125,0.20312 0,0.1875 0.1875,0.1875 0.328125,0.1875 z m 0.01563,1.9375 c 0.14062,0 0.32812,0 0.32812,-0.20312 0,-0.1875 -0.1875,-0.1875 -0.34375,-0.1875 H 0.890625 c -0.140625,0 -0.328125,0 -0.328125,0.1875 0,0.20312 0.1875,0.20312 0.328125,0.20312 z"
           id="path8087" />
      </symbol>
      <symbol
         id="symbol6206"
         overflow="visible">
        <path
           d="M 1.76563,-6.92188 0.328125,-6.8125 V -6.5 c 0.703125,0 0.781255,0.0625 0.781255,0.5625 V -0.75 c 0,0.4375 -0.10938,0.4375 -0.781255,0.4375 V 0 C 0.65625,-0.015625 1.1875,-0.03125 1.4375,-0.03125 c 0.25,0 0.73438,0.015625 1.10938,0.03125 v -0.3125 c -0.67188,0 -0.78125,0 -0.78125,-0.4375 z"
           id="path2902" />
      </symbol>
      <symbol
         id="symbol8646"
         overflow="visible">
        <path
           d="M 1.76563,-4.40625 0.375,-4.29688 v 0.3125 c 0.64063,0 0.73438,0.0625 0.73438,0.54688 V -0.75 c 0,0.4375 -0.10938,0.4375 -0.781255,0.4375 V 0 C 0.640625,-0.015625 1.1875,-0.03125 1.42188,-0.03125 1.78125,-0.03125 2.125,-0.015625 2.46875,0 v -0.3125 c -0.67187,0 -0.70312,-0.046875 -0.70312,-0.4375 z m 0.03125,-1.73438 c 0,-0.3125 -0.23438,-0.53125 -0.51563,-0.53125 -0.3125,0 -0.53125,0.26563 -0.53125,0.53125 0,0.26563 0.21875,0.53125 0.53125,0.53125 0.28125,0 0.51563,-0.21875 0.51563,-0.53125 z"
           id="path2928" />
      </symbol>
      <symbol
         id="symbol2957"
         overflow="visible">
        <path
           d="M 1.09375,-3.42188 V -0.75 c 0,0.4375 -0.109375,0.4375 -0.78125,0.4375 V 0 c 0.359375,-0.015625 0.85938,-0.03125 1.14063,-0.03125 0.25,0 0.76562,0.015625 1.10937,0.03125 v -0.3125 c -0.67187,0 -0.78125,0 -0.78125,-0.4375 V -2.59375 C 1.78125,-3.625 2.5,-4.1875 3.125,-4.1875 c 0.64063,0 0.75,0.53125 0.75,1.10937 V -0.75 c 0,0.4375 -0.10937,0.4375 -0.78125,0.4375 V 0 c 0.34375,-0.015625 0.85938,-0.03125 1.125,-0.03125 0.25,0 0.78125,0.015625 1.10938,0.03125 v -0.3125 c -0.65625,0 -0.76563,0 -0.76563,-0.4375 v -1.84375 c 0,-1.03125 0.70313,-1.59375 1.34375,-1.59375 0.625,0 0.73438,0.53125 0.73438,1.10937 V -0.75 c 0,0.4375 -0.10938,0.4375 -0.78125,0.4375 V 0 c 0.34375,-0.015625 0.85937,-0.03125 1.125,-0.03125 0.26562,0 0.78125,0.015625 1.125,0.03125 v -0.3125 c -0.51563,0 -0.76563,0 -0.78125,-0.296875 V -2.51563 c 0,-0.85937 0,-1.15625 -0.3125,-1.51562 -0.14063,-0.17188 -0.46875,-0.375 -1.04688,-0.375 -0.82812,0 -1.28125,0.59375 -1.4375,0.98437 -0.14062,-0.875 -0.875,-0.98437 -1.32812,-0.98437 -0.73438,0 -1.20313,0.42187 -1.48438,1.04687 V -4.40625 L 0.3125,-4.29688 v 0.3125 c 0.70313,0 0.78125,0.0625 0.78125,0.5625 z"
           id="path3440" />
      </symbol>
      <symbol
         id="symbol2692"
         overflow="visible">
        <path
           d="m 2.9375,-6.375 c 0,-0.25 0,-0.26563 -0.23437,-0.26563 C 2.07813,-6 1.20313,-6 0.890625,-6 v 0.3125 c 0.203125,0 0.781255,0 1.296875,-0.26563 v 5.17188 c 0,0.359375 -0.03125,0.46875 -0.92187,0.46875 H 0.953125 V 0 C 1.29688,-0.03125 2.15625,-0.03125 2.5625,-0.03125 c 0.39063,0 1.26563,0 1.60938,0.03125 v -0.3125 h -0.3125 c -0.90625,0 -0.92188,-0.109375 -0.92188,-0.46875 z"
           id="path8450" />
      </symbol>
      <symbol
         id="symbol4249"
         overflow="visible">
        <path
           d=""
           id="path5010" />
      </symbol>
      <symbol
         id="symbol4679"
         overflow="visible">
        <path
           d="m 0.84375,-0.4375 c -0.015625,0.09375 -0.0625,0.265625 -0.0625,0.28125 0,0.15625 0.125,0.21875 0.23438,0.21875 0.125,0 0.23437,-0.078125 0.28125,-0.140625 0.03125,-0.0625 0.07812,-0.296875 0.125,-0.4375 0.03125,-0.125 0.10937,-0.453125 0.14062,-0.625005 0.04688,-0.15625 0.09375,-0.3125 0.125,-0.46875 0.07813,-0.28125 0.09375,-0.34375 0.29688,-0.625 C 2.17188,-2.51563 2.5,-2.875 3.03125,-2.875 c 0.39063,0 0.40625,0.35937 0.40625,0.48437 0,0.42188 -0.29687,1.1875 -0.40625,1.48438 -0.07812,0.203125 -0.10937,0.265625 -0.10937,0.375 0,0.375 0.29687,0.59375 0.65625,0.59375 0.70312,0 1,-0.953125 1,-1.0625 0,-0.09375 -0.07813,-0.09375 -0.10938,-0.09375 -0.09375,0 -0.09375,0.04687 -0.125,0.125 C 4.1875,-0.40625 3.875,-0.125 3.60938,-0.125 c -0.15625,0 -0.1875,-0.09375 -0.1875,-0.25 0,-0.15625 0.04687,-0.25 0.17187,-0.5625 0.07813,-0.21875 0.35938,-0.95313 0.35938,-1.34375 0,-0.67188 -0.53125,-0.79688 -0.90625,-0.79688 -0.57813,0 -0.96875,0.35938 -1.17188,0.64063 -0.04687,-0.48438 -0.45312,-0.64063 -0.75,-0.64063 -0.296875,0 -0.453125,0.21875 -0.546875,0.375 -0.15625,0.26563 -0.25,0.65625 -0.25,0.70313 0,0.07812 0.09375,0.07812 0.125,0.07812 0.09375,0 0.09375,-0.01562 0.140625,-0.20312 0.109375,-0.40625 0.25,-0.75 0.51563,-0.75 0.1875,0 0.23437,0.15625 0.23437,0.34375 0,0.125 -0.0625,0.39062 -0.125,0.57812 -0.04687,0.1875 -0.10937,0.46875 -0.14062,0.625 z"
           id="path7580" />
      </symbol>
      <symbol
         id="symbol3655"
         overflow="visible">
        <path
           d="m 2.1875,-4.625 c 0,-0.01563 0.01563,-0.10938 0.01563,-0.10938 0,-0.04687 -0.01563,-0.10937 -0.10938,-0.10937 -0.14062,0 -0.71875,0.0625 -0.89062,0.07812 -0.04688,0 -0.15625,0.01563 -0.15625,0.15625 0,0.09375 0.10937,0.09375 0.1875,0.09375 0.32812,0 0.32812,0.0625 0.32812,0.10938 0,0.04687 -0.01562,0.09375 -0.01562,0.15625 L 0.5625,-0.3125 c -0.046875,0.125 -0.046875,0.140625 -0.046875,0.15625 0,0.109375 0.09375,0.21875 0.25,0.21875 0.1875,0 0.265625,-0.125 0.312505,-0.28125 0.01562,-0.03125 0.3125,-1.26563 0.34375,-1.35938 0.5,0.04688 0.89062,0.21875 0.89062,0.57813 0,0.03125 0,0.0625 -0.01562,0.140625 -0.03125,0.09375 -0.03125,0.140625 -0.03125,0.21875 0,0.484375 0.40625,0.703125 0.75,0.703125 0.67187,0 0.875,-1.046875 0.875,-1.0625 0,-0.09375 -0.07813,-0.09375 -0.10938,-0.09375 -0.09375,0 -0.10937,0.04687 -0.14062,0.171875 C 3.5625,-0.625 3.375,-0.125 3.03125,-0.125 c -0.1875,0 -0.25,-0.171875 -0.25,-0.359375 0,-0.125 0,-0.140625 0.04688,-0.3125 0.01562,-0.03125 0.03125,-0.140625 0.03125,-0.218755 0,-0.625 -0.82813,-0.71875 -1.125,-0.73437 C 1.9375,-1.875 2.1875,-2.10938 2.3125,-2.21875 2.67188,-2.54688 3.01563,-2.875 3.40625,-2.875 c 0.07813,0 0.17188,0.01562 0.23438,0.09375 -0.29688,0.04687 -0.35938,0.28125 -0.35938,0.39062 0,0.14063 0.10938,0.25 0.26563,0.25 0.20312,0 0.40625,-0.15625 0.40625,-0.4375 0,-0.23437 -0.17188,-0.5 -0.53125,-0.5 -0.40625,0 -0.76563,0.29688 -1.125,0.625 C 2,-2.1875 1.78125,-1.96875 1.48438,-1.84375 Z"
           id="path8468" />
      </symbol>
      <symbol
         id="symbol9947"
         overflow="visible">
        <path
           d=""
           id="path339" />
      </symbol>
      <symbol
         id="symbol3480"
         overflow="visible">
        <path
           d="m 6.40625,-1.57813 c -0.875,0.64063 -0.98437,1.562505 -0.98437,1.562505 0,0.109375 0.0625,0.109375 0.15625,0.109375 0.125,0 0.15625,0 0.1875,-0.125 0.04687,-0.171875 0.15625,-0.609375 0.51562,-1 0.40625,-0.42188 0.75,-0.53125 1.04688,-0.625 0.03125,-0.01563 0.0625,-0.04688 0.0625,-0.07813 0,-0.07812 -0.03125,-0.09375 -0.125,-0.125 C 6.26563,-2.17188 5.90625,-2.89063 5.75,-3.5 5.73438,-3.57813 5.67188,-3.57813 5.57813,-3.57813 c -0.09375,0 -0.15625,0 -0.15625,0.09375 0,0.01563 0.0625,0.48438 0.40625,0.96875 0.15625,0.23438 0.35937,0.4375 0.57812,0.59375 H 0.8125 c -0.109375,0 -0.28125,0 -0.28125,0.17188 0,0.17187 0.171875,0.17187 0.28125,0.17187 z"
           id="path8604" />
      </symbol>
      <symbol
         id="symbol5804"
         overflow="visible">
        <path
           d="m 4.03125,-1.90625 c -0.375,-0.4375 -0.48437,-0.54688 -0.75,-0.73438 -0.42187,-0.3125 -0.875,-0.4375 -1.25,-0.4375 -0.875,0 -1.5,0.75 -1.5,1.57813 0,0.8125 0.60938,1.5625 1.46875,1.5625 0.96875,0 1.65625,-0.78125 1.90625,-1.15625 0.35938,0.4375 0.48438,0.546875 0.73438,0.734375 0.4375,0.3125 0.875,0.421875 1.26562,0.421875 0.85938,0 1.48438,-0.734375 1.48438,-1.5625 0,-0.82813 -0.59375,-1.57813 -1.46875,-1.57813 -0.96875,0 -1.64063,0.79688 -1.89063,1.17188 z m 0.21875,0.25 c 0.28125,-0.45313 0.89063,-1.15625 1.73438,-1.15625 0.71875,0 1.21875,0.64062 1.21875,1.3125 0,0.65625 -0.54688,1.1875 -1.1875,1.1875 -0.65625,0 -1.09375,-0.53125 -1.76563,-1.34375 z m -0.57812,0.29687 c -0.26563,0.45313 -0.875,1.17188 -1.73438,1.17188 -0.71875,0 -1.203125,-0.640625 -1.203125,-1.3125 0,-0.67188 0.546875,-1.1875 1.187505,-1.1875 0.64062,0 1.09375,0.53125 1.75,1.32812 z"
           id="path5526" />
      </symbol>
      <symbol
         id="symbol8512"
         overflow="visible">
        <path
           d=""
           id="path2592" />
      </symbol>
      <symbol
         id="symbol9568"
         overflow="visible">
        <path
           d="m 12.625,13.9531 1.2031,-3.1875 h -0.25 c -0.3906,1.0313 -1.4531,1.7188 -2.5937,2.0157 -0.2031,0.0468 -1.18752,0.3125 -3.09377,0.3125 H 1.875 L 6.95313,7.14063 C 7.01563,7.0625 7.03125,7.03125 7.03125,6.98438 c 0,-0.03125 0,-0.0625 -0.0625,-0.15625 L 2.32813,0.484375 h 5.45312 c 1.34375,0 2.25005,0.140625 2.34375,0.15625 0.5313,0.078125 1.4063,0.25 2.1875,0.750005 0.25,0.15625 0.9219,0.60937 1.2656,1.40625 h 0.25 L 12.625,0 H 0.84375 c -0.234375,0 -0.25,0.015625 -0.28125,0.0625 0,0.03125 0,0.234375 0,0.34375 L 5.82813,7.60938 0.671875,13.6719 C 0.5625,13.7813 0.5625,13.8438 0.5625,13.8438 c 0,0.1093 0.09375,0.1093 0.28125,0.1093 z"
           id="path5497" />
      </symbol>
    </g>
    <g
       id="g6233">
      <symbol
         id="symbol5041"
         overflow="visible">
        <path
           d=""
           id="path9626" />
      </symbol>
      <symbol
         id="symbol3439"
         overflow="visible">
        <path
           d="m 3.32813,-3.01563 c 0.0625,-0.25 0.29687,-1.17187 0.98437,-1.17187 0.04688,0 0.29688,0 0.5,0.125 C 4.53125,-4 4.34375,-3.76563 4.34375,-3.51563 c 0,0.15625 0.10938,0.34375 0.375,0.34375 0.21875,0 0.53125,-0.17187 0.53125,-0.57812 0,-0.51563 -0.57812,-0.65625 -0.92187,-0.65625 -0.57813,0 -0.92188,0.53125 -1.04688,0.75 -0.25,-0.65625 -0.78125,-0.75 -1.07812,-0.75 -1.03125,0 -1.60938,1.28125 -1.60938,1.53125 0,0.10937 0.109375,0.10937 0.125,0.10937 0.078125,0 0.109375,-0.03125 0.125,-0.10937 0.34375,-1.0625 1,-1.3125 1.34375,-1.3125 0.1875,0 0.53125,0.09375 0.53125,0.67187 0,0.3125 -0.17187,0.96875 -0.53125,2.375 -0.15625,0.60938 -0.51562,1.031255 -0.95312,1.031255 -0.0625,0 -0.281255,0 -0.500005,-0.125 0.25,-0.0625 0.468755,-0.265625 0.468755,-0.546875 0,-0.26563 -0.218755,-0.34375 -0.35938,-0.34375 -0.3125,0 -0.546875,0.25 -0.546875,0.578125 0,0.453125 0.484375,0.65625 0.921875,0.65625 0.67188,0 1.03125,-0.703125 1.04688,-0.75 0.125,0.359375 0.48437,0.75 1.07812,0.75 1.03125,0 1.59375,-1.281255 1.59375,-1.531255 0,-0.10937 -0.07812,-0.10937 -0.10937,-0.10937 -0.09375,0 -0.10938,0.04687 -0.14063,0.10937 -0.32812,1.07813 -1,1.312505 -1.3125,1.312505 -0.39062,0 -0.54687,-0.3125 -0.54687,-0.65625 0,-0.21875 0.04687,-0.437505 0.15625,-0.875005 z"
           id="path977" />
      </symbol>
    </g>
    <g
       id="g529">
      <symbol
         id="symbol2061"
         overflow="visible">
        <path
           d=""
           id="path6941" />
      </symbol>
      <symbol
         id="symbol8753"
         overflow="visible">
        <path
           d="m 4.8125,-6.65625 c 0,-0.04688 0.01563,-0.10938 0.01563,-0.15625 0,-0.09375 -0.0625,-0.10938 -0.10938,-0.10938 -0.10937,0 -0.10937,0.03125 -0.15625,0.20313 L 2.90625,-0.125 c -0.75,-0.09375 -1.125,-0.46875 -1.125,-1.125 0,-0.20313 0,-0.45313 0.53125,-1.84375 0.04688,-0.125 0.10938,-0.29688 0.10938,-0.5 0,-0.4375 -0.3125,-0.8125 -0.8125,-0.8125 -0.95313,0 -1.312505,1.45312 -1.312505,1.53125 0,0.10937 0.09375,0.10937 0.109375,0.10937 0.109375,0 0.109375,-0.03125 0.15625,-0.1875 0.28125,-0.9375 0.67188,-1.23437 1.01563,-1.23437 0.07812,0 0.25,0 0.25,0.3125 0,0.26562 -0.10938,0.51562 -0.23438,0.85937 C 1.10938,-1.75 1.10938,-1.5 1.10938,-1.32813 c 0,0.95313 0.78125,1.35938 1.73437,1.42188 C 2.76563,0.453125 2.76563,0.46875 2.625,1 2.60938,1.10938 2.40625,1.90625 2.40625,1.9375 c 0,0.01563 0,0.10938 0.10938,0.10938 0.03125,0 0.07812,0 0.09375,-0.04688 0.03125,-0.01562 0.09375,-0.26562 0.125,-0.40625 l 0.375,-1.484375 c 0.375,0 1.25,0 2.1875,-1.0625 0.40625,-0.468755 0.60937,-0.906255 0.71875,-1.203125 0.09375,-0.25 0.3125,-1.10938 0.3125,-1.54688 0,-0.5625 -0.26563,-0.70312 -0.4375,-0.70312 -0.25,0 -0.5,0.26562 -0.5,0.48437 0,0.125 0.0625,0.1875 0.15625,0.26563 0.10937,0.10937 0.35937,0.35937 0.35937,0.84375 0,0.64062 -0.51562,1.45312 -0.875,1.8125 -0.875,0.890625 -1.51562,0.890625 -1.875,0.890625 z"
           id="path940" />
      </symbol>
      <symbol
         id="symbol82"
         overflow="visible">
        <path
           d="m 0.875,-0.59375 c -0.03125,0.15625 -0.09375,0.390625 -0.09375,0.4375 0,0.171875 0.140625,0.265625 0.29688,0.265625 0.125,0 0.29687,-0.078125 0.375,-0.28125 0,-0.015625 0.125,-0.484375 0.1875,-0.734375 L 1.85938,-1.79688 C 1.90625,-2.03125 1.96875,-2.25 2.03125,-2.46875 c 0.03125,-0.17188 0.10938,-0.46875 0.125,-0.5 0.14063,-0.3125 0.67188,-1.21875 1.625,-1.21875 0.45313,0 0.53125,0.375 0.53125,0.70312 0,0.60938 -0.48437,1.89063 -0.64062,2.3125 -0.09375,0.23438 -0.10938,0.35938 -0.10938,0.468755 0,0.46875 0.35938,0.8125 0.82813,0.8125 0.9375,0 1.29687,-1.453125 1.29687,-1.531255 0,-0.10937 -0.07812,-0.10937 -0.10937,-0.10937 -0.10938,0 -0.10938,0.03125 -0.15625,0.1875 -0.20313,0.671875 -0.53125,1.234375 -1.01563,1.234375 -0.17187,0 -0.23437,-0.09375 -0.23437,-0.328125 0,-0.25 0.07812,-0.484375 0.17187,-0.70313 0.1875,-0.53125 0.60938,-1.625 0.60938,-2.20312 0,-0.65625 -0.42188,-1.0625 -1.14063,-1.0625 -0.90625,0 -1.39062,0.64062 -1.5625,0.875 -0.04687,-0.5625 -0.45312,-0.875 -0.92187,-0.875 -0.45313,0 -0.64063,0.39062 -0.73438,0.5625 C 0.421875,-3.5 0.296875,-2.90625 0.296875,-2.875 c 0,0.10937 0.09375,0.10937 0.109375,0.10937 0.109375,0 0.109375,-0.01562 0.171875,-0.23437 0.171875,-0.70313 0.375,-1.1875 0.734375,-1.1875 0.1875,0 0.29688,0.125 0.29688,0.45312 0,0.21875 -0.03125,0.32813 -0.15625,0.84375 z"
           id="path9973" />
      </symbol>
      <symbol
         id="symbol5789"
         overflow="visible">
        <path
           d="m 1.85938,-2.29688 c 0.29687,0 1.03125,-0.03125 1.53125,-0.23437 0.70312,-0.29688 0.75,-0.89063 0.75,-1.03125 0,-0.4375 -0.375,-0.84375 -1.0625,-0.84375 -1.10938,0 -2.625005,0.96875 -2.625005,2.71875 0,1.015625 0.593755,1.796875 1.578125,1.796875 1.42188,0 2.25,-1.0625 2.25,-1.171875 0,-0.0625 -0.04687,-0.14063 -0.10937,-0.14063 -0.0625,0 -0.07813,0.03125 -0.14063,0.10938 -0.78125,0.984375 -1.875,0.984375 -1.98437,0.984375 -0.78125,0 -0.875,-0.84375 -0.875,-1.156255 0,-0.125 0.01562,-0.42187 0.15625,-1.03125 z M 1.39063,-2.51563 c 0.39062,-1.51562 1.42187,-1.67187 1.6875,-1.67187 0.45312,0 0.73437,0.29687 0.73437,0.625 0,1.04687 -1.59375,1.04687 -2.01562,1.04687 z"
           id="path1829" />
      </symbol>
      <symbol
         id="symbol203"
         overflow="visible">
        <path
           d=""
           id="path4946" />
      </symbol>
      <symbol
         id="symbol4558"
         overflow="visible">
        <path
           d="m 6.84375,-3.26563 c 0.15625,0 0.34375,0 0.34375,-0.1875 C 7.1875,-3.65625 7,-3.65625 6.85938,-3.65625 H 0.890625 c -0.140625,0 -0.328125,0 -0.328125,0.20312 0,0.1875 0.1875,0.1875 0.328125,0.1875 z m 0.01563,1.9375 c 0.14062,0 0.32812,0 0.32812,-0.20312 0,-0.1875 -0.1875,-0.1875 -0.34375,-0.1875 H 0.890625 c -0.140625,0 -0.328125,0 -0.328125,0.1875 0,0.20312 0.1875,0.20312 0.328125,0.20312 z"
           id="path3547" />
      </symbol>
      <symbol
         id="symbol15"
         overflow="visible">
        <path
           d=""
           id="path6519" />
      </symbol>
      <symbol
         id="symbol3137"
         overflow="visible">
        <path
           d="m 3,-2.625 c -0.17187,0.04687 -0.29687,0.1875 -0.29687,0.32812 0,0.17188 0.14062,0.23438 0.23437,0.23438 0.07813,0 0.34375,-0.04688 0.34375,-0.40625 0,-0.45313 -0.5,-0.60938 -0.9375,-0.60938 -1.07812,0 -1.28125,0.8125 -1.28125,1.01563 0,0.26562 0.15625,0.4375 0.25,0.51562 0.17188,0.14063 0.29688,0.17188 0.78125,0.25 0.15625,0.03125 0.59375,0.10938 0.59375,0.45313 0,0.125 -0.07812,0.390625 -0.35937,0.5625 C 2.04688,-0.125 1.70313,-0.125 1.625,-0.125 1.34375,-0.125 0.953125,-0.1875 0.78125,-0.421875 1.01563,-0.453125 1.17188,-0.625 1.17188,-0.8125 c 0,-0.171875 -0.125,-0.26563 -0.26563,-0.26563 C 0.703125,-1.07813 0.5,-0.90625 0.5,-0.609375 0.5,-0.1875 0.9375,0.0625 1.60938,0.0625 c 1.29687,0 1.53125,-0.875 1.53125,-1.14063 0,-0.64062 -0.70313,-0.76562 -0.96875,-0.8125 -0.0625,-0.01562 -0.23438,-0.04687 -0.28125,-0.0625 -0.25,-0.04687 -0.375,-0.1875 -0.375,-0.34375 0,-0.15625 0.125,-0.34375 0.28125,-0.45312 0.1875,-0.10938 0.42187,-0.125 0.54687,-0.125 0.14063,0 0.5,0.01562 0.65625,0.25 z"
           id="path4498" />
      </symbol>
      <symbol
         id="symbol1329"
         overflow="visible">
        <path
           d="m 2.26563,-4.35938 c 0,-0.10937 -0.09375,-0.26562 -0.28125,-0.26562 -0.1875,0 -0.39063,0.1875 -0.39063,0.39062 0,0.10938 0.07813,0.26563 0.28125,0.26563 0.1875,0 0.39063,-0.20313 0.39063,-0.39063 z M 0.84375,-0.8125 c -0.03125,0.09375 -0.0625,0.171875 -0.0625,0.296875 0,0.328125 0.26563,0.578125 0.65625,0.578125 0.6875,0 1,-0.953125 1,-1.0625 0,-0.09375 -0.09375,-0.09375 -0.10937,-0.09375 -0.09375,0 -0.10938,0.04687 -0.14063,0.125 -0.15625,0.5625 -0.45312,0.84375 -0.73437,0.84375 -0.14063,0 -0.17188,-0.09375 -0.17188,-0.25 0,-0.15625 0.04688,-0.28125 0.10938,-0.4375 C 1.46875,-1 1.54688,-1.1875 1.60938,-1.375 1.67188,-1.54688 1.9375,-2.17188 1.95313,-2.26563 1.98438,-2.32813 2,-2.40625 2,-2.48438 2,-2.8125 1.71875,-3.07813 1.34375,-3.07813 0.640625,-3.07813 0.328125,-2.125 0.328125,-2 c 0,0.07812 0.09375,0.07812 0.125,0.07812 0.09375,0 0.09375,-0.03125 0.125,-0.10937 C 0.75,-2.625 1.0625,-2.875 1.3125,-2.875 c 0.10938,0 0.17188,0.04687 0.17188,0.23437 0,0.17188 -0.03125,0.26563 -0.20313,0.70313 z"
           id="path3494" />
      </symbol>
      <symbol
         id="symbol1920"
         overflow="visible">
        <path
           d="m 3.42188,-4.75 c 0,-0.09375 -0.07813,-0.09375 -0.10938,-0.09375 -0.10937,0 -0.10937,0.04687 -0.14062,0.15625 l -0.39063,1.59375 c -1.23437,0.0625 -2.296875,0.95312 -2.296875,1.875 0,0.796875 0.718755,1.265625 1.500005,1.296875 C 1.92188,0.296875 1.875,0.515625 1.8125,0.734375 1.73438,1.0625 1.67188,1.3125 1.67188,1.34375 c 0,0.07813 0.09375,0.07813 0.10937,0.07813 0.10938,0 0.10938,-0.01563 0.15625,-0.17188 L 2.21875,0.078125 C 3.42188,0.03125 4.51563,-0.84375 4.51563,-1.79688 c 0,-0.71875 -0.64063,-1.25 -1.5,-1.28125 z M 2.03125,-0.125 C 1.48438,-0.140625 1,-0.4375 1,-1.09375 1,-1.79688 1.53125,-2.78125 2.71875,-2.89063 Z m 0.9375,-2.76563 C 3.5,-2.85938 4,-2.57813 4,-1.90625 c 0,0.75 -0.59375,1.6875 -1.73437,1.78125 z"
           id="path8080" />
      </symbol>
      <symbol
         id="symbol9557"
         overflow="visible">
        <path
           d=""
           id="path2120" />
      </symbol>
      <symbol
         id="symbol4323"
         overflow="visible">
        <path
           d="M 1.98438,-3.17188 C 1.98438,-3.3125 1.96875,-3.3125 1.79688,-3.3125 1.45313,-3 0.890625,-3 0.796875,-3 H 0.71875 v 0.21875 h 0.078125 c 0.109375,0 0.437505,-0.01563 0.734375,-0.14063 v 2.500005 c 0,0.140625 0,0.203125 -0.53125,0.203125 H 0.75 V 0 c 0.26563,-0.015625 0.71875,-0.015625 1,-0.015625 0.29688,0 0.73438,0 1.01563,0.015625 v -0.21875 h -0.25 c -0.53125,0 -0.53125,-0.0625 -0.53125,-0.203125 z"
           id="path15" />
      </symbol>
    </g>
    <g
       id="g3854">
      <symbol
         id="symbol3294"
         overflow="visible">
        <path
           d=""
           id="path7156" />
      </symbol>
      <symbol
         id="symbol4697"
         overflow="visible">
        <path
           d="m 4.8125,-6.65625 c 0,-0.04688 0.01563,-0.10938 0.01563,-0.15625 0,-0.09375 -0.0625,-0.10938 -0.10938,-0.10938 -0.10937,0 -0.10937,0.03125 -0.15625,0.20313 L 2.90625,-0.125 c -0.75,-0.09375 -1.125,-0.46875 -1.125,-1.125 0,-0.20313 0,-0.45313 0.53125,-1.84375 0.04688,-0.125 0.10938,-0.29688 0.10938,-0.5 0,-0.4375 -0.3125,-0.8125 -0.8125,-0.8125 -0.95313,0 -1.312505,1.45312 -1.312505,1.53125 0,0.10937 0.09375,0.10937 0.109375,0.10937 0.109375,0 0.109375,-0.03125 0.15625,-0.1875 0.28125,-0.9375 0.67188,-1.23437 1.01563,-1.23437 0.07812,0 0.25,0 0.25,0.3125 0,0.26562 -0.10938,0.51562 -0.23438,0.85937 C 1.10938,-1.75 1.10938,-1.5 1.10938,-1.32813 c 0,0.95313 0.78125,1.35938 1.73437,1.42188 C 2.76563,0.453125 2.76563,0.46875 2.625,1 2.60938,1.10938 2.40625,1.90625 2.40625,1.9375 c 0,0.01563 0,0.10938 0.10938,0.10938 0.03125,0 0.07812,0 0.09375,-0.04688 0.03125,-0.01562 0.09375,-0.26562 0.125,-0.40625 l 0.375,-1.484375 c 0.375,0 1.25,0 2.1875,-1.0625 0.40625,-0.468755 0.60937,-0.906255 0.71875,-1.203125 0.09375,-0.25 0.3125,-1.10938 0.3125,-1.54688 0,-0.5625 -0.26563,-0.70312 -0.4375,-0.70312 -0.25,0 -0.5,0.26562 -0.5,0.48437 0,0.125 0.0625,0.1875 0.15625,0.26563 0.10937,0.10937 0.35937,0.35937 0.35937,0.84375 0,0.64062 -0.51562,1.45312 -0.875,1.8125 -0.875,0.890625 -1.51562,0.890625 -1.875,0.890625 z"
           id="path786" />
      </symbol>
      <symbol
         id="symbol1612"
         overflow="visible">
        <path
           d="m 0.875,-0.59375 c -0.03125,0.15625 -0.09375,0.390625 -0.09375,0.4375 0,0.171875 0.140625,0.265625 0.29688,0.265625 0.125,0 0.29687,-0.078125 0.375,-0.28125 0,-0.015625 0.125,-0.484375 0.1875,-0.734375 L 1.85938,-1.79688 C 1.90625,-2.03125 1.96875,-2.25 2.03125,-2.46875 c 0.03125,-0.17188 0.10938,-0.46875 0.125,-0.5 0.14063,-0.3125 0.67188,-1.21875 1.625,-1.21875 0.45313,0 0.53125,0.375 0.53125,0.70312 0,0.60938 -0.48437,1.89063 -0.64062,2.3125 -0.09375,0.23438 -0.10938,0.35938 -0.10938,0.468755 0,0.46875 0.35938,0.8125 0.82813,0.8125 0.9375,0 1.29687,-1.453125 1.29687,-1.531255 0,-0.10937 -0.07812,-0.10937 -0.10937,-0.10937 -0.10938,0 -0.10938,0.03125 -0.15625,0.1875 -0.20313,0.671875 -0.53125,1.234375 -1.01563,1.234375 -0.17187,0 -0.23437,-0.09375 -0.23437,-0.328125 0,-0.25 0.07812,-0.484375 0.17187,-0.70313 0.1875,-0.53125 0.60938,-1.625 0.60938,-2.20312 0,-0.65625 -0.42188,-1.0625 -1.14063,-1.0625 -0.90625,0 -1.39062,0.64062 -1.5625,0.875 -0.04687,-0.5625 -0.45312,-0.875 -0.92187,-0.875 -0.45313,0 -0.64063,0.39062 -0.73438,0.5625 C 0.421875,-3.5 0.296875,-2.90625 0.296875,-2.875 c 0,0.10937 0.09375,0.10937 0.109375,0.10937 0.109375,0 0.109375,-0.01562 0.171875,-0.23437 0.171875,-0.70313 0.375,-1.1875 0.734375,-1.1875 0.1875,0 0.29688,0.125 0.29688,0.45312 0,0.21875 -0.03125,0.32813 -0.15625,0.84375 z"
           id="path5607" />
      </symbol>
      <symbol
         id="symbol1249"
         overflow="visible">
        <path
           d="m 1.85938,-2.29688 c 0.29687,0 1.03125,-0.03125 1.53125,-0.23437 0.70312,-0.29688 0.75,-0.89063 0.75,-1.03125 0,-0.4375 -0.375,-0.84375 -1.0625,-0.84375 -1.10938,0 -2.625005,0.96875 -2.625005,2.71875 0,1.015625 0.593755,1.796875 1.578125,1.796875 1.42188,0 2.25,-1.0625 2.25,-1.171875 0,-0.0625 -0.04687,-0.14063 -0.10937,-0.14063 -0.0625,0 -0.07813,0.03125 -0.14063,0.10938 -0.78125,0.984375 -1.875,0.984375 -1.98437,0.984375 -0.78125,0 -0.875,-0.84375 -0.875,-1.156255 0,-0.125 0.01562,-0.42187 0.15625,-1.03125 z M 1.39063,-2.51563 c 0.39062,-1.51562 1.42187,-1.67187 1.6875,-1.67187 0.45312,0 0.73437,0.29687 0.73437,0.625 0,1.04687 -1.59375,1.04687 -2.01562,1.04687 z"
           id="path6435" />
      </symbol>
      <symbol
         id="symbol1107"
         overflow="visible">
        <path
           d=""
           id="path5664" />
      </symbol>
      <symbol
         id="symbol6676"
         overflow="visible">
        <path
           d="m 6.84375,-3.26563 c 0.15625,0 0.34375,0 0.34375,-0.1875 C 7.1875,-3.65625 7,-3.65625 6.85938,-3.65625 H 0.890625 c -0.140625,0 -0.328125,0 -0.328125,0.20312 0,0.1875 0.1875,0.1875 0.328125,0.1875 z m 0.01563,1.9375 c 0.14062,0 0.32812,0 0.32812,-0.20312 0,-0.1875 -0.1875,-0.1875 -0.34375,-0.1875 H 0.890625 c -0.140625,0 -0.328125,0 -0.328125,0.1875 0,0.20312 0.1875,0.20312 0.328125,0.20312 z"
           id="path773" />
      </symbol>
      <symbol
         id="symbol372"
         overflow="visible">
        <path
           d=""
           id="path815" />
      </symbol>
      <symbol
         id="symbol4003"
         overflow="visible">
        <path
           d="m 3,-2.625 c -0.17187,0.04687 -0.29687,0.1875 -0.29687,0.32812 0,0.17188 0.14062,0.23438 0.23437,0.23438 0.07813,0 0.34375,-0.04688 0.34375,-0.40625 0,-0.45313 -0.5,-0.60938 -0.9375,-0.60938 -1.07812,0 -1.28125,0.8125 -1.28125,1.01563 0,0.26562 0.15625,0.4375 0.25,0.51562 0.17188,0.14063 0.29688,0.17188 0.78125,0.25 0.15625,0.03125 0.59375,0.10938 0.59375,0.45313 0,0.125 -0.07812,0.390625 -0.35937,0.5625 C 2.04688,-0.125 1.70313,-0.125 1.625,-0.125 1.34375,-0.125 0.953125,-0.1875 0.78125,-0.421875 1.01563,-0.453125 1.17188,-0.625 1.17188,-0.8125 c 0,-0.171875 -0.125,-0.26563 -0.26563,-0.26563 C 0.703125,-1.07813 0.5,-0.90625 0.5,-0.609375 0.5,-0.1875 0.9375,0.0625 1.60938,0.0625 c 1.29687,0 1.53125,-0.875 1.53125,-1.14063 0,-0.64062 -0.70313,-0.76562 -0.96875,-0.8125 -0.0625,-0.01562 -0.23438,-0.04687 -0.28125,-0.0625 -0.25,-0.04687 -0.375,-0.1875 -0.375,-0.34375 0,-0.15625 0.125,-0.34375 0.28125,-0.45312 0.1875,-0.10938 0.42187,-0.125 0.54687,-0.125 0.14063,0 0.5,0.01562 0.65625,0.25 z"
           id="path3433" />
      </symbol>
      <symbol
         id="symbol1704"
         overflow="visible">
        <path
           d="m 2.26563,-4.35938 c 0,-0.10937 -0.09375,-0.26562 -0.28125,-0.26562 -0.1875,0 -0.39063,0.1875 -0.39063,0.39062 0,0.10938 0.07813,0.26563 0.28125,0.26563 0.1875,0 0.39063,-0.20313 0.39063,-0.39063 z M 0.84375,-0.8125 c -0.03125,0.09375 -0.0625,0.171875 -0.0625,0.296875 0,0.328125 0.26563,0.578125 0.65625,0.578125 0.6875,0 1,-0.953125 1,-1.0625 0,-0.09375 -0.09375,-0.09375 -0.10937,-0.09375 -0.09375,0 -0.10938,0.04687 -0.14063,0.125 -0.15625,0.5625 -0.45312,0.84375 -0.73437,0.84375 -0.14063,0 -0.17188,-0.09375 -0.17188,-0.25 0,-0.15625 0.04688,-0.28125 0.10938,-0.4375 C 1.46875,-1 1.54688,-1.1875 1.60938,-1.375 1.67188,-1.54688 1.9375,-2.17188 1.95313,-2.26563 1.98438,-2.32813 2,-2.40625 2,-2.48438 2,-2.8125 1.71875,-3.07813 1.34375,-3.07813 0.640625,-3.07813 0.328125,-2.125 0.328125,-2 c 0,0.07812 0.09375,0.07812 0.125,0.07812 0.09375,0 0.09375,-0.03125 0.125,-0.10937 C 0.75,-2.625 1.0625,-2.875 1.3125,-2.875 c 0.10938,0 0.17188,0.04687 0.17188,0.23437 0,0.17188 -0.03125,0.26563 -0.20313,0.70313 z"
           id="path5255" />
      </symbol>
      <symbol
         id="symbol2864"
         overflow="visible">
        <path
           d="m 3.42188,-4.75 c 0,-0.09375 -0.07813,-0.09375 -0.10938,-0.09375 -0.10937,0 -0.10937,0.04687 -0.14062,0.15625 l -0.39063,1.59375 c -1.23437,0.0625 -2.296875,0.95312 -2.296875,1.875 0,0.796875 0.718755,1.265625 1.500005,1.296875 C 1.92188,0.296875 1.875,0.515625 1.8125,0.734375 1.73438,1.0625 1.67188,1.3125 1.67188,1.34375 c 0,0.07813 0.09375,0.07813 0.10937,0.07813 0.10938,0 0.10938,-0.01563 0.15625,-0.17188 L 2.21875,0.078125 C 3.42188,0.03125 4.51563,-0.84375 4.51563,-1.79688 c 0,-0.71875 -0.64063,-1.25 -1.5,-1.28125 z M 2.03125,-0.125 C 1.48438,-0.140625 1,-0.4375 1,-1.09375 1,-1.79688 1.53125,-2.78125 2.71875,-2.89063 Z m 0.9375,-2.76563 C 3.5,-2.85938 4,-2.57813 4,-1.90625 c 0,0.75 -0.59375,1.6875 -1.73437,1.78125 z"
           id="path1050" />
      </symbol>
      <symbol
         id="symbol3717"
         overflow="visible">
        <path
           d=""
           id="path2384" />
      </symbol>
      <symbol
         id="symbol6716"
         overflow="visible">
        <path
           d="M 2.9375,-0.96875 H 2.71875 c 0,0.09375 -0.0625,0.40625 -0.14062,0.453125 -0.03125,0.03125 -0.45313,0.03125 -0.53125,0.03125 H 1.07813 C 1.40625,-0.71875 1.76563,-1 2.0625,-1.20313 c 0.45313,-0.3125 0.875,-0.59375 0.875,-1.125 0,-0.64062 -0.60937,-0.98437 -1.3125,-0.98437 -0.671875,0 -1.171875,0.375 -1.171875,0.875 0,0.25 0.21875,0.29687 0.296875,0.29687 0.125,0 0.28125,-0.09375 0.28125,-0.29687 0,-0.17188 -0.125,-0.28125 -0.28125,-0.28125 0.140625,-0.23438 0.4375,-0.375 0.76563,-0.375 0.48437,0 0.89062,0.28125 0.89062,0.76562 0,0.42188 -0.29687,0.75 -0.67187,1.0625 L 0.515625,-0.234375 C 0.46875,-0.1875 0.453125,-0.1875 0.453125,-0.15625 V 0 H 2.76563 Z"
           id="path4008" />
      </symbol>
    </g>
    <g
       id="g9344">
      <symbol
         id="symbol97"
         overflow="visible">
        <path
           d=""
           id="path5858" />
      </symbol>
      <symbol
         id="symbol8010"
         overflow="visible">
        <path
           d="m 4.8125,-6.65625 c 0,-0.04688 0.01563,-0.10938 0.01563,-0.15625 0,-0.09375 -0.0625,-0.10938 -0.10938,-0.10938 -0.10937,0 -0.10937,0.03125 -0.15625,0.20313 L 2.90625,-0.125 c -0.75,-0.09375 -1.125,-0.46875 -1.125,-1.125 0,-0.20313 0,-0.45313 0.53125,-1.84375 0.04688,-0.125 0.10938,-0.29688 0.10938,-0.5 0,-0.4375 -0.3125,-0.8125 -0.8125,-0.8125 -0.95313,0 -1.312505,1.45312 -1.312505,1.53125 0,0.10937 0.09375,0.10937 0.109375,0.10937 0.109375,0 0.109375,-0.03125 0.15625,-0.1875 0.28125,-0.9375 0.67188,-1.23437 1.01563,-1.23437 0.07812,0 0.25,0 0.25,0.3125 0,0.26562 -0.10938,0.51562 -0.23438,0.85937 C 1.10938,-1.75 1.10938,-1.5 1.10938,-1.32813 c 0,0.95313 0.78125,1.35938 1.73437,1.42188 C 2.76563,0.453125 2.76563,0.46875 2.625,1 2.60938,1.10938 2.40625,1.90625 2.40625,1.9375 c 0,0.01563 0,0.10938 0.10938,0.10938 0.03125,0 0.07812,0 0.09375,-0.04688 0.03125,-0.01562 0.09375,-0.26562 0.125,-0.40625 l 0.375,-1.484375 c 0.375,0 1.25,0 2.1875,-1.0625 0.40625,-0.468755 0.60937,-0.906255 0.71875,-1.203125 0.09375,-0.25 0.3125,-1.10938 0.3125,-1.54688 0,-0.5625 -0.26563,-0.70312 -0.4375,-0.70312 -0.25,0 -0.5,0.26562 -0.5,0.48437 0,0.125 0.0625,0.1875 0.15625,0.26563 0.10937,0.10937 0.35937,0.35937 0.35937,0.84375 0,0.64062 -0.51562,1.45312 -0.875,1.8125 -0.875,0.890625 -1.51562,0.890625 -1.875,0.890625 z"
           id="path5590" />
      </symbol>
    </g>
    <g
       id="g6803">
      <symbol
         id="symbol3760"
         overflow="visible">
        <path
           d=""
           id="path3258" />
      </symbol>
      <symbol
         id="symbol5809"
         overflow="visible">
        <path
           d="m 3.32813,-3.01563 c 0.0625,-0.25 0.29687,-1.17187 0.98437,-1.17187 0.04688,0 0.29688,0 0.5,0.125 C 4.53125,-4 4.34375,-3.76563 4.34375,-3.51563 c 0,0.15625 0.10938,0.34375 0.375,0.34375 0.21875,0 0.53125,-0.17187 0.53125,-0.57812 0,-0.51563 -0.57812,-0.65625 -0.92187,-0.65625 -0.57813,0 -0.92188,0.53125 -1.04688,0.75 -0.25,-0.65625 -0.78125,-0.75 -1.07812,-0.75 -1.03125,0 -1.60938,1.28125 -1.60938,1.53125 0,0.10937 0.109375,0.10937 0.125,0.10937 0.078125,0 0.109375,-0.03125 0.125,-0.10937 0.34375,-1.0625 1,-1.3125 1.34375,-1.3125 0.1875,0 0.53125,0.09375 0.53125,0.67187 0,0.3125 -0.17187,0.96875 -0.53125,2.375 -0.15625,0.60938 -0.51562,1.031255 -0.95312,1.031255 -0.0625,0 -0.281255,0 -0.500005,-0.125 0.25,-0.0625 0.468755,-0.265625 0.468755,-0.546875 0,-0.26563 -0.218755,-0.34375 -0.35938,-0.34375 -0.3125,0 -0.546875,0.25 -0.546875,0.578125 0,0.453125 0.484375,0.65625 0.921875,0.65625 0.67188,0 1.03125,-0.703125 1.04688,-0.75 0.125,0.359375 0.48437,0.75 1.07812,0.75 1.03125,0 1.59375,-1.281255 1.59375,-1.531255 0,-0.10937 -0.07812,-0.10937 -0.10937,-0.10937 -0.09375,0 -0.10938,0.04687 -0.14063,0.10937 -0.32812,1.07813 -1,1.312505 -1.3125,1.312505 -0.39062,0 -0.54687,-0.3125 -0.54687,-0.65625 0,-0.21875 0.04687,-0.437505 0.15625,-0.875005 z"
           id="path4918" />
      </symbol>
    </g>
  </defs>
  <g
     id="layer1"
     transform="translate(-17.353663,-15.270416)">
    <path
       d="m 17.3798,15.4001 c 54.73,11.0305 159.5302,18.4201 0.3131,45.0074"
       id="path1839"
       stroke="#000000"
       stroke-width="0.264583"
       fill="#008080" />
    <path
       d="M 190.76923,15.400594 C 135.4998,26.430852 29.666968,33.82029 190.45314,60.407006"
       id="path1839-3"
       stroke="#000000"
       stroke-width="0.265881"
       fill="#008080" />
    <g
       id="g3199"
       fill="#ffffff"
       transform="matrix(1.4671111,0,0,1.5110945,-115.30025,-81.513956)">
      <g
         id="g3372">
        <g
           id="g5221">
          <use
             x="91.925003"
             y="81.962997"
             width="100%"
             height="100%"
             xlink:href="#symbol8753"
             id="use9565" />
        </g>
        <g
           id="g6646">
          <use
             x="101.54"
             y="81.962997"
             width="100%"
             height="100%"
             xlink:href="#symbol4558"
             id="use6893" />
        </g>
        <g
           id="g2929">
          <use
             x="112.056"
             y="81.962997"
             width="100%"
             height="100%"
             xlink:href="#symbol82"
             id="use1282" />
        </g>
        <g
           id="g1899">
          <use
             x="118.036"
             y="83.457001"
             width="100%"
             height="100%"
             xlink:href="#symbol3137"
             id="use3496" />
        </g>
        <g
           id="g4711">
          <use
             x="122.294"
             y="81.962997"
             width="100%"
             height="100%"
             xlink:href="#symbol5789"
             id="use3551" />
        </g>
        <g
           id="g3046">
          <use
             x="126.933"
             y="78.348"
             width="100%"
             height="100%"
             xlink:href="#symbol1329"
             id="use8179" />
          <use
             x="129.752"
             y="78.348"
             width="100%"
             height="100%"
             xlink:href="#symbol1920"
             id="use7522" />
        </g>
        <g
           id="g1919">
          <use
             x="134.54201"
             y="79.344002"
             width="100%"
             height="100%"
             xlink:href="#symbol4323"
             id="use8981" />
        </g>
      </g>
    </g>
    <g
       id="g3516"
       fill="#ffffff"
       transform="translate(46.087425,-40.846819)">
      <g
         id="g2062"
         transform="matrix(1.4615396,0,0,1.5110945,-58.480138,-41.196304)">
        <g
           id="g9363">
          <use
             x="91.925003"
             y="81.962997"
             width="100%"
             height="100%"
             xlink:href="#symbol4697"
             id="use4072" />
        </g>
        <g
           id="g3561">
          <use
             x="101.54"
             y="81.962997"
             width="100%"
             height="100%"
             xlink:href="#symbol6676"
             id="use9801" />
        </g>
        <g
           id="g6397">
          <use
             x="112.056"
             y="81.962997"
             width="100%"
             height="100%"
             xlink:href="#symbol1612"
             id="use7545" />
        </g>
        <g
           id="g6649">
          <use
             x="118.036"
             y="83.457001"
             width="100%"
             height="100%"
             xlink:href="#symbol4003"
             id="use3942" />
        </g>
        <g
           id="g9788">
          <use
             x="122.294"
             y="81.962997"
             width="100%"
             height="100%"
             xlink:href="#symbol1249"
             id="use8521" />
        </g>
        <g
           id="g9888">
          <use
             x="126.933"
             y="78.348"
             width="100%"
             height="100%"
             xlink:href="#symbol1704"
             id="use1041" />
          <use
             x="129.752"
             y="78.348"
             width="100%"
             height="100%"
             xlink:href="#symbol2864"
             id="use2456" />
        </g>
        <g
           id="g6297">
          <use
             x="134.54201"
             y="79.344002"
             width="100%"
             height="100%"
             xlink:href="#symbol6716"
             id="use3992" />
        </g>
      </g>
    </g>
  </g>
</svg>
